<?xml version="1.0" standalone="no"?>
<!DOCTYPE svg PUBLIC "-//W3C//DTD SVG 20010904//EN"
 "http://www.w3.org/TR/2001/REC-SVG-20010904/DTD/svg10.dtd">
<svg version="1.0" xmlns="http://www.w3.org/2000/svg"
 width="123.000000pt" height="122.000000pt" viewBox="0 0 123.000000 122.000000"
 preserveAspectRatio="xMidYMid meet">

<g transform="translate(0.000000,122.000000) scale(0.100000,-0.100000)"
fill="black" stroke="black">
<path d="M625 1117 c-10 -8 -15 -19 -11 -25 7 -12 -27 -52 -45 -52 -5 0 -17
16 -25 36 -11 25 -20 34 -30 30 -9 -3 -20 -6 -26 -6 -6 0 -8 -13 -5 -34 9 -53
-38 -79 -65 -36 -15 24 -41 26 -58 5 -11 -13 -11 -20 0 -40 24 -45 -14 -82
-51 -49 -15 14 -24 16 -37 8 -25 -16 -26 -40 -2 -64 16 -16 18 -24 10 -40 -9
-16 -20 -20 -53 -18 -38 3 -42 1 -45 -23 -2 -19 3 -28 23 -37 19 -9 25 -19 25
-42 0 -29 -1 -30 -42 -28 -42 3 -43 2 -43 -27 0 -25 5 -31 30 -35 48 -8 42
-70 -7 -70 -10 0 -21 -7 -25 -16 -9 -24 11 -49 37 -46 49 5 69 -50 25 -70 -27
-12 -33 -41 -12 -55 6 -4 30 -8 52 -8 49 0 58 -25 24 -61 l-23 -24 22 -22 c20
-20 22 -21 40 -5 26 24 59 22 67 -4 4 -12 2 -26 -4 -32 -20 -20 -12 -46 15
-53 19 -5 29 -1 41 15 9 14 23 21 36 19 18 -2 23 -11 25 -43 5 -61 45 -77 64
-24 8 25 15 30 37 27 19 -2 27 -9 29 -28 7 -54 72 -59 72 -5 0 13 8 28 17 34
23 12 53 -4 53 -28 0 -24 18 -31 48 -20 20 8 22 13 17 43 -6 28 -3 36 14 46
18 9 25 7 45 -15 21 -22 28 -25 45 -15 24 12 25 20 9 55 -10 21 -9 29 6 43 16
16 18 16 48 -1 31 -18 32 -18 52 2 l20 21 -23 24 c-35 37 -25 61 27 61 32 0
46 5 54 19 9 16 6 24 -22 46 -45 37 -39 65 15 65 38 0 40 2 40 30 0 23 -5 30
-24 35 -52 12 -50 64 2 72 17 2 22 10 22 33 0 27 -3 30 -30 30 -17 1 -36 4
-43 8 -21 14 -14 47 13 59 20 9 25 18 23 37 -3 23 -7 26 -42 24 -61 -4 -83 22
-46 54 11 10 20 22 20 29 0 6 -9 19 -20 29 -19 17 -21 17 -38 2 -41 -37 -82
-5 -56 44 10 21 11 29 1 36 -29 23 -37 22 -61 -4 -35 -37 -62 -23 -58 31 2 31
0 36 -23 42 -29 7 -41 -1 -47 -31 -2 -15 -11 -20 -33 -20 -26 0 -30 4 -33 30
-5 43 -25 54 -57 32z m-30 -387 c0 -29 -32 -41 -41 -16 -9 24 4 48 23 44 12
-2 18 -12 18 -28z m203 -46 c4 -27 -26 -40 -46 -20 -21 20 -8 48 20 44 14 -2
24 -11 26 -24z m-93 -19 c45 -44 25 -117 -35 -130 -53 -12 -108 41 -96 91 16
63 87 84 131 39z m-148 -121 c3 -8 -2 -23 -11 -32 -15 -15 -17 -15 -32 0 -21
21 -11 48 16 48 11 0 23 -7 27 -16z m177 -30 c9 -3 16 -17 16 -30 0 -19 -5
-24 -25 -24 -20 0 -25 5 -25 23 0 34 8 41 34 31z"/>
</g>
</svg>
