<?xml version="1.0" standalone="no"?>
<!DOCTYPE svg PUBLIC "-//W3C//DTD SVG 20010904//EN"
 "http://www.w3.org/TR/2001/REC-SVG-20010904/DTD/svg10.dtd">
<svg version="1.0" xmlns="http://www.w3.org/2000/svg"
 width="221.000000pt" height="213.000000pt" viewBox="0 0 221.000000 213.000000"
 preserveAspectRatio="xMidYMid meet">

<g transform="translate(0.000000,213.000000) scale(0.100000,-0.100000)"
fill="black" stroke="black">
<path d="M1100 2060 c0 -34 -33 -73 -58 -68 -9 2 -26 21 -37 43 -11 22 -21 42
-22 43 -1 2 -10 1 -21 -2 -15 -5 -20 -15 -19 -40 2 -70 -52 -87 -88 -29 -28
45 -61 42 -57 -5 5 -46 -22 -85 -51 -77 -12 4 -32 18 -44 32 -30 37 -56 25
-48 -21 4 -19 4 -44 0 -55 -8 -28 -52 -28 -81 0 -18 17 -26 19 -43 10 -20 -11
-20 -13 -4 -47 13 -26 14 -39 7 -52 -15 -24 -50 -27 -81 -7 -23 15 -27 15 -41
2 -14 -14 -13 -18 1 -41 24 -36 21 -64 -8 -78 -19 -8 -31 -8 -52 1 -21 10 -29
9 -41 -3 -13 -13 -12 -18 7 -42 40 -51 18 -91 -44 -81 -49 8 -62 -17 -29 -56
13 -16 24 -37 24 -48 0 -22 -43 -43 -73 -35 -12 3 -21 -3 -26 -17 -7 -18 -4
-25 15 -35 30 -16 42 -58 23 -78 -8 -8 -27 -15 -42 -16 -39 -3 -51 -58 -13
-58 7 0 21 -9 30 -19 25 -27 12 -57 -30 -73 -25 -9 -34 -18 -34 -35 0 -16 6
-23 19 -23 10 0 29 -8 42 -19 20 -16 22 -22 11 -45 -6 -14 -23 -28 -37 -32
-39 -10 -30 -45 15 -59 56 -17 66 -51 24 -84 -29 -23 -29 -54 1 -59 51 -7 63
-13 68 -32 3 -13 -4 -31 -20 -50 -34 -41 -20 -63 38 -64 41 -1 44 -3 47 -29 2
-16 -3 -36 -12 -46 -28 -31 -10 -52 41 -49 57 4 74 -15 55 -64 -10 -26 -9 -35
2 -46 10 -11 19 -11 34 -3 54 29 91 1 75 -54 -16 -50 5 -65 52 -39 48 26 70
11 69 -45 -1 -51 25 -65 60 -32 43 41 94 13 83 -45 -7 -37 31 -44 56 -10 33
45 87 29 87 -25 0 -20 6 -30 22 -35 13 -4 24 -2 26 4 8 25 45 62 62 62 22 0
36 -17 45 -53 9 -33 55 -40 55 -8 0 10 8 29 19 42 16 20 22 22 45 11 14 -6 28
-23 32 -37 8 -34 54 -36 54 -2 0 31 27 67 50 67 11 0 29 -13 42 -30 32 -44 58
-40 58 9 0 37 19 71 40 71 5 0 24 -13 43 -29 44 -39 62 -28 58 33 -4 66 34 81
86 34 17 -16 25 -18 42 -9 19 11 19 13 4 39 -24 42 -11 82 26 82 15 0 40 -9
53 -20 24 -18 26 -18 41 -2 14 15 14 19 -4 41 -50 61 6 120 70 74 22 -15 25
-15 37 2 12 15 10 22 -11 47 -27 32 -32 57 -13 76 15 15 53 16 78 2 15 -8 21
-6 30 10 9 17 6 24 -20 46 -56 48 -31 98 48 92 31 -3 37 0 40 18 2 16 -4 23
-22 28 -30 7 -59 47 -51 69 8 20 56 40 86 35 18 -2 25 2 27 18 2 16 -4 23 -25
29 -36 8 -63 33 -63 56 0 24 37 49 72 49 23 0 28 4 28 25 0 21 -5 25 -28 25
-35 0 -72 25 -72 49 0 23 27 48 63 56 20 6 27 13 27 32 0 22 -3 24 -24 19 -13
-3 -38 -1 -55 5 -52 18 -37 76 27 100 16 6 22 14 18 25 -3 9 -6 20 -6 25 0 6
-8 6 -19 -1 -31 -16 -66 -12 -86 10 -15 17 -16 24 -7 45 7 14 23 30 37 37 26
12 30 24 16 47 -6 10 -13 11 -29 2 -34 -18 -80 -14 -92 9 -12 23 9 74 35 83
18 7 20 28 4 44 -8 8 -20 6 -43 -8 -40 -24 -61 -24 -79 2 -17 24 -13 49 14 78
22 23 23 33 8 48 -9 9 -21 6 -48 -13 -19 -13 -43 -24 -51 -24 -40 0 -52 52
-23 97 16 24 16 26 -1 39 -17 12 -22 10 -46 -16 -29 -32 -58 -38 -78 -18 -15
15 -16 62 -2 88 8 15 6 21 -12 31 -18 9 -23 9 -26 -1 -9 -25 -51 -60 -71 -60
-28 0 -44 35 -37 81 4 22 2 39 -3 39 -5 0 -16 3 -25 6 -11 4 -16 0 -16 -13 0
-25 -36 -63 -60 -63 -26 0 -52 42 -48 77 2 22 -1 29 -17 30 -15 2 -25 -8 -40
-40 -24 -50 -55 -60 -79 -25 -9 12 -16 35 -16 50 0 23 -4 28 -25 28 -21 0 -25
-5 -25 -30z m202 -227 c103 -47 87 -127 -39 -189 -52 -25 -68 -28 -163 -29
-97 0 -109 2 -164 30 -102 51 -118 117 -41 165 59 36 132 50 250 47 85 -3 121
-8 157 -24z m370 -199 c86 -56 186 -223 196 -326 4 -52 2 -62 -18 -83 -31 -33
-54 -31 -128 6 -104 51 -183 168 -197 289 -16 134 45 181 147 114z m-979 -44
c28 -54 19 -159 -21 -244 -37 -79 -114 -158 -179 -182 -40 -16 -48 -16 -71 -3
-74 41 -38 216 75 372 74 101 160 126 196 57z m606 -201 c74 -39 124 -92 159
-168 22 -46 26 -71 27 -141 0 -72 -4 -94 -27 -142 -103 -219 -360 -282 -550
-134 -43 34 -64 61 -90 113 -30 62 -33 75 -33 163 0 114 19 163 91 240 110
118 280 146 423 69z m553 -399 c32 -25 41 -67 27 -133 -33 -156 -162 -327
-245 -327 -61 0 -79 39 -72 153 9 141 99 271 217 313 47 17 44 17 73 -6z
m-1312 -58 c54 -25 138 -115 168 -179 37 -81 43 -196 12 -235 -13 -17 -31 -28
-46 -28 -120 0 -314 295 -274 416 19 56 60 64 140 26z m744 -402 c158 -49 181
-143 49 -202 -67 -30 -267 -38 -342 -13 -60 20 -105 66 -95 99 21 70 146 134
265 135 31 1 87 -8 123 -19z"/>
</g>
</svg>
