<?xml version="1.0" standalone="no"?>
<!DOCTYPE svg PUBLIC "-//W3C//DTD SVG 20010904//EN"
 "http://www.w3.org/TR/2001/REC-SVG-20010904/DTD/svg10.dtd">
<svg version="1.0" xmlns="http://www.w3.org/2000/svg"
 width="267.000000pt" height="267.000000pt" viewBox="0 0 267.000000 267.000000"
 preserveAspectRatio="xMidYMid meet">

<g transform="translate(0.000000,267.000000) scale(0.100000,-0.100000)"
fill="black" stroke="black">
<path d="M1205 2518 c-14 -82 -69 -105 -105 -45 -11 17 -20 40 -20 50 0 14 -6
18 -27 15 -26 -3 -28 -7 -33 -53 -7 -63 -14 -75 -49 -75 -31 0 -54 21 -70 62
-9 25 -12 26 -41 16 -21 -7 -29 -15 -26 -25 17 -43 17 -65 2 -88 -24 -36 -58
-32 -95 10 -28 32 -33 34 -56 23 -18 -8 -24 -16 -19 -27 4 -9 9 -35 12 -58 3
-34 0 -43 -16 -52 -25 -13 -49 -6 -85 28 l-27 25 -21 -21 c-20 -19 -20 -22 -5
-51 23 -44 20 -69 -9 -88 -23 -15 -27 -15 -66 6 -42 21 -42 21 -62 1 -20 -19
-20 -19 2 -47 51 -64 9 -120 -67 -88 -34 14 -38 14 -49 -2 -18 -25 -17 -32 12
-66 47 -56 26 -91 -51 -87 -40 3 -49 0 -57 -19 -8 -18 -5 -26 22 -51 54 -50
31 -101 -46 -101 -36 0 -41 -3 -46 -25 -3 -21 1 -29 25 -41 16 -8 34 -26 40
-39 15 -33 -12 -63 -64 -71 -34 -6 -38 -10 -38 -35 0 -18 5 -29 14 -29 25 0
66 -41 66 -65 0 -27 -34 -55 -67 -55 -19 0 -23 -5 -23 -30 0 -21 6 -32 18 -36
49 -15 67 -30 67 -59 0 -23 -8 -34 -32 -50 -25 -15 -32 -26 -30 -45 2 -20 9
-26 44 -33 71 -14 78 -58 18 -105 -21 -17 -24 -24 -16 -45 8 -20 16 -25 45
-24 66 2 88 -52 40 -99 -23 -24 -24 -28 -11 -47 11 -17 24 -22 62 -22 66 0 78
-20 47 -77 -22 -41 -22 -43 -4 -60 15 -16 23 -17 50 -7 26 9 37 8 57 -5 29
-19 31 -35 9 -78 -15 -29 -15 -32 4 -50 18 -19 21 -19 50 -4 44 23 71 20 83
-8 9 -18 8 -33 0 -57 -10 -30 -9 -35 10 -50 21 -15 24 -15 57 7 42 29 47 29
73 3 16 -16 19 -28 14 -58 -5 -33 -3 -39 18 -48 21 -10 28 -8 48 13 49 52 99
34 99 -37 0 -33 4 -40 26 -45 22 -6 31 -1 51 25 41 52 88 38 102 -32 5 -25 12
-33 32 -35 20 -2 28 4 41 32 29 60 90 56 106 -7 7 -27 14 -33 40 -35 28 -3 32
0 32 20 0 34 27 68 55 68 25 0 65 -42 65 -67 0 -10 9 -13 27 -11 23 2 29 9 34
40 7 46 25 68 53 68 24 0 66 -38 66 -59 0 -9 8 -11 23 -7 12 3 25 6 30 6 4 0
7 22 7 48 0 26 5 53 12 60 21 21 55 13 87 -18 26 -26 33 -29 54 -19 22 10 24
14 14 44 -5 18 -7 44 -3 58 11 45 49 43 118 -5 14 -10 21 -9 35 4 13 14 15 22
5 40 -23 48 -24 66 -2 88 23 23 47 21 91 -10 25 -18 27 -18 46 2 l21 20 -24
36 c-30 44 -30 67 0 87 23 15 39 14 83 -7 40 -19 71 25 37 53 -24 20 -45 66
-38 84 11 27 50 36 93 21 38 -12 40 -12 50 11 10 21 7 28 -29 62 -46 44 -48
53 -19 82 18 18 29 21 69 16 43 -5 49 -4 54 16 9 33 8 35 -16 42 -34 11 -68
46 -68 71 0 31 25 47 73 48 46 1 57 9 57 44 0 16 -6 22 -20 22 -12 0 -34 7
-49 15 -71 36 -38 105 49 105 28 0 30 3 30 35 0 34 -1 35 -38 35 -80 0 -111
63 -49 100 17 11 40 20 49 20 23 0 30 14 22 43 -5 22 -10 24 -45 20 -78 -11
-119 52 -62 96 14 12 36 24 49 27 20 5 21 9 12 34 -9 28 -11 28 -64 23 -94
-10 -115 39 -42 101 38 33 40 38 30 61 -11 25 -13 25 -41 10 -46 -23 -100 -20
-110 7 -11 31 -4 51 30 84 34 32 36 45 10 68 -16 14 -20 15 -30 2 -20 -24 -77
-39 -101 -26 -29 15 -26 65 6 108 l27 34 -21 21 -21 20 -36 -31 c-56 -50 -105
-39 -105 23 0 16 8 44 19 60 18 30 18 30 -7 46 -24 17 -25 16 -54 -17 -35 -39
-60 -49 -88 -34 -23 12 -28 76 -9 112 9 18 8 24 -7 35 -27 20 -40 16 -54 -17
-13 -31 -49 -60 -74 -60 -29 0 -49 46 -42 95 7 42 6 46 -19 55 -34 13 -35 13
-35 -5 0 -49 -59 -103 -92 -84 -22 12 -40 71 -32 104 6 25 5 26 -27 23 -29 -3
-34 -8 -40 -36 -8 -39 -35 -72 -60 -72 -26 0 -59 48 -59 86 0 31 -3 34 -29 34
-27 0 -30 -4 -36 -42z m284 -218 c192 -46 290 -142 260 -254 -17 -61 -114
-152 -224 -208 -162 -83 -327 -128 -537 -149 -173 -16 -312 4 -399 60 -193
122 3 397 372 521 158 54 376 66 528 30z m430 -325 c66 -34 52 -132 -22 -158
-24 -9 -83 16 -96 41 -24 45 -3 104 43 122 31 13 44 12 75 -5z m196 -237 c130
-89 171 -384 90 -661 -98 -340 -385 -617 -535 -515 -75 51 -100 123 -100 288
0 337 196 789 386 889 52 27 119 27 159 -1z m-1586 -59 c63 -22 77 -107 24
-149 -85 -67 -188 60 -107 131 11 9 26 19 34 22 8 3 15 6 16 6 1 1 15 -4 33
-10z m807 -104 c170 -50 229 -264 108 -389 -45 -46 -83 -66 -144 -73 -98 -11
-196 42 -242 131 -56 108 -6 261 101 312 73 35 110 39 177 19z m-739 -187
c141 -53 380 -258 505 -434 146 -205 203 -399 141 -482 -42 -57 -68 -67 -161
-66 -73 0 -100 5 -168 32 -165 65 -349 216 -453 370 -116 173 -173 376 -140
497 12 43 66 101 101 108 38 8 117 -3 175 -25z m898 -754 c8 -4 23 -20 31 -36
44 -85 -64 -170 -131 -103 -52 52 -19 145 51 145 18 0 40 -3 49 -6z"/>
</g>
</svg>
