<?xml version="1.0" standalone="no"?>
<!DOCTYPE svg PUBLIC "-//W3C//DTD SVG 20010904//EN"
 "http://www.w3.org/TR/2001/REC-SVG-20010904/DTD/svg10.dtd">
<svg version="1.0" xmlns="http://www.w3.org/2000/svg"
 width="522.000000pt" height="424.000000pt" viewBox="0 0 522.000000 424.000000"
 preserveAspectRatio="xMidYMid meet">

<g transform="translate(0.000000,424.000000) scale(0.100000,-0.100000)"
fill="white" stroke="white">
<path d="M2064 4165 c-6 -14 -53 -45 -69 -45 -3 0 -10 11 -15 25 -8 22 -15 25
-45 23 -31 -2 -35 -5 -35 -29 0 -23 -3 -26 -27 -21 -16 3 -34 13 -40 23 -11
15 -18 16 -43 6 -17 -6 -30 -20 -32 -32 -2 -13 -12 -21 -30 -23 -16 -2 -28 0
-28 5 0 4 -4 14 -9 22 -11 18 -51 -3 -52 -27 0 -14 -2 -14 -9 3 -8 19 -9 19
-9 -1 -1 -29 -61 -41 -61 -12 0 28 -52 18 -58 -12 -2 -8 -8 -16 -13 -18 -5 -2
-9 -12 -9 -23 0 -23 -32 -26 -49 -5 -13 15 -64 29 -55 15 3 -5 1 -9 -4 -9 -5
0 -8 -10 -8 -22 1 -18 -5 -24 -27 -26 -16 -2 -35 2 -42 8 -21 17 -45 5 -45
-22 0 -25 -25 -68 -40 -68 -5 0 -16 7 -25 17 -13 12 -23 14 -43 7 -23 -8 -27
-15 -27 -49 0 -44 -23 -58 -51 -31 -20 21 -53 20 -61 0 -5 -13 -7 -13 -14 -2
-7 10 -9 10 -9 0 0 -7 7 -23 15 -36 14 -21 14 -25 -1 -37 -14 -11 -21 -11 -46
4 -38 22 -44 21 -70 -3 -21 -19 -21 -20 -3 -39 9 -11 15 -27 12 -36 -8 -20
-47 -19 -63 3 -12 16 -14 16 -36 -6 -18 -16 -23 -30 -20 -52 6 -39 -18 -48
-56 -22 l-28 21 -13 -21 c-11 -18 -11 -20 2 -15 13 5 13 2 1 -21 -8 -15 -14
-37 -14 -50 0 -28 -18 -36 -53 -23 -17 7 -28 7 -32 1 -4 -6 -1 -10 5 -10 6 0
-1 -11 -15 -24 -16 -15 -22 -27 -15 -31 5 -3 10 -16 11 -28 1 -20 2 -20 9 3 6
22 8 23 15 7 13 -30 -30 -67 -70 -60 -42 7 -54 -12 -26 -41 27 -29 27 -31 -9
-66 -25 -24 -35 -28 -50 -20 -25 13 -35 -17 -19 -54 15 -31 -5 -80 -29 -71
-41 15 -60 16 -65 1 -3 -8 0 -22 8 -30 33 -32 5 -84 -40 -78 -25 3 -47 -19
-26 -26 7 -2 17 -15 22 -29 14 -37 -13 -77 -46 -69 -35 9 -50 -22 -24 -50 18
-19 18 -24 6 -60 -10 -32 -17 -39 -37 -36 -23 2 -23 2 -6 -17 13 -15 16 -28
11 -53 -12 -60 -16 -68 -36 -68 -24 0 -24 -11 -1 -36 19 -21 23 -55 7 -66 -6
-5 -6 -8 3 -8 6 0 12 -4 12 -10 0 -5 -9 -10 -19 -10 -11 0 -23 -5 -26 -10 -4
-6 -11 -8 -16 -5 -5 4 -13 -4 -18 -17 -6 -18 -4 -26 11 -36 23 -17 23 -89 -1
-84 -16 3 -41 -16 -41 -33 0 -7 11 -16 25 -19 18 -5 25 -13 25 -30 0 -41 -10
-57 -30 -46 -14 8 -17 5 -15 -18 3 -41 4 -42 25 -42 30 0 25 -64 -7 -79 -32
-14 -29 -30 7 -44 26 -10 30 -16 28 -41 -2 -22 -8 -30 -25 -31 -28 -2 -43 -15
-18 -15 10 0 15 -3 12 -6 -7 -7 29 -62 51 -80 18 -14 8 -50 -19 -64 -26 -14
-24 -30 4 -30 32 0 44 -11 49 -48 3 -23 -1 -37 -14 -49 -10 -9 -18 -24 -18
-35 0 -14 7 -18 32 -16 30 3 34 0 46 -37 12 -37 12 -41 -9 -57 -11 -10 -19
-18 -15 -18 3 0 2 -10 -3 -23 -6 -15 -5 -28 3 -39 12 -16 14 -16 29 -1 25 25
45 9 53 -43 5 -38 4 -48 -10 -56 -34 -19 -12 -48 36 -48 44 0 66 -78 29 -102
-15 -9 -17 -16 -10 -30 11 -20 39 -24 56 -7 15 15 53 -6 53 -31 0 -10 3 -25 6
-33 3 -8 -4 -24 -15 -34 -18 -17 -19 -22 -8 -37 12 -16 17 -17 37 -6 20 11 26
9 49 -14 l26 -26 -20 -36 c-16 -30 -17 -37 -5 -44 10 -6 17 -4 23 5 11 21 34
19 68 -6 35 -24 37 -54 8 -86 -21 -21 -21 -23 -4 -29 32 -13 50 9 47 55 -4 47
14 84 80 162 l41 49 -22 40 c-12 22 -18 40 -13 40 5 0 20 -20 33 -45 13 -25
26 -45 30 -45 3 0 15 9 27 20 12 11 26 20 31 20 5 0 43 32 83 71 76 73 67 81
-12 10 -25 -22 -48 -41 -52 -41 -3 0 -18 15 -33 33 -14 17 -34 41 -44 52 -32
35 -90 131 -97 161 -4 16 -11 32 -17 35 -12 8 0 79 13 79 6 0 9 3 8 8 -5 14
57 102 73 102 9 0 22 -19 33 -50 10 -28 23 -56 30 -63 6 -7 20 -28 30 -47 11
-19 39 -59 63 -88 24 -30 43 -58 43 -62 0 -22 49 -60 77 -60 66 0 111 -77 79
-137 -8 -15 -40 -53 -71 -83 -31 -30 -64 -63 -73 -72 -14 -16 -18 -13 -48 34
-18 27 -42 57 -53 65 -29 20 -83 13 -96 -12 -6 -11 -32 -42 -57 -69 -51 -54
-64 -95 -41 -139 23 -46 56 -52 120 -22 30 15 57 33 60 41 3 7 9 14 15 14 5 0
6 -6 1 -12 -4 -7 11 2 34 20 41 32 63 40 63 23 0 -5 8 -12 17 -15 15 -6 14 -4
-2 14 -18 20 -18 21 0 34 23 16 42 11 56 -15 5 -11 18 -19 29 -19 10 0 22 -4
25 -10 3 -5 10 -10 16 -10 18 0 8 16 -30 44 -39 28 -60 66 -37 66 6 0 20 9 29
21 10 11 24 18 32 15 8 -3 17 6 24 25 15 43 35 61 52 46 8 -7 4 0 -9 14 -12
14 -22 33 -22 43 0 49 -63 116 -110 116 -21 0 -38 14 -77 62 -68 85 -76 102
-68 149 4 21 5 40 3 42 -1 2 2 10 9 18 24 30 35 99 23 149 -9 39 -9 54 4 85 9
21 14 40 11 43 -7 7 28 53 82 106 80 80 19 36 -87 -63 -55 -51 -100 -86 -100
-78 0 9 37 46 83 83 45 37 97 83 116 101 31 30 60 45 47 25 -2 -4 -1 -14 5
-22 7 -13 9 -13 9 1 0 20 75 55 109 51 29 -4 63 -24 100 -58 13 -12 31 -20 39
-17 11 5 13 1 6 -18 -5 -13 -8 -44 -7 -68 0 -37 6 -49 29 -68 16 -13 40 -23
54 -22 38 2 54 0 48 -7 -4 -3 -2 -20 4 -37 10 -32 16 -60 17 -85 1 -7 9 -16
19 -19 9 -4 22 -14 28 -22 9 -11 16 -12 25 -5 15 11 21 11 59 0 23 -6 25 -11
24 -64 0 -54 7 -72 31 -72 6 0 3 5 -5 10 -11 7 -11 10 -2 10 7 0 24 12 38 27
13 14 27 23 31 19 4 -4 1 -11 -7 -16 -13 -8 -13 -11 -1 -22 9 -9 15 -9 17 -2
5 12 62 6 70 -8 4 -6 1 -13 -5 -17 -13 -9 7 -58 27 -66 9 -3 10 0 2 15 -5 10
-10 29 -10 42 0 13 -7 34 -16 47 -16 22 -15 23 2 19 14 -2 21 -15 25 -45 3
-23 10 -48 17 -56 6 -7 8 -17 4 -22 -4 -4 7 -4 25 0 29 6 32 4 28 -14 -3 -12
-7 -31 -10 -44 -3 -12 -12 -27 -20 -33 -8 -6 -15 -15 -15 -19 0 -4 -25 -37
-56 -72 -31 -35 -55 -65 -53 -67 2 -2 38 34 79 81 52 58 76 80 78 68 2 -9 -9
-28 -25 -42 -15 -14 -64 -60 -107 -102 -44 -42 -74 -67 -66 -56 7 11 -23 -16
-68 -60 -45 -44 -82 -84 -82 -90 0 -5 21 11 47 35 36 35 42 38 26 15 -29 -42
-60 -68 -72 -61 -9 6 -53 -16 -71 -34 -36 -36 -70 -62 -65 -48 4 9 2 19 -4 22
-5 4 -15 -9 -22 -28 -9 -24 -24 -39 -57 -55 l-44 -22 -45 27 c-40 23 -44 24
-34 6 8 -15 7 -21 -3 -25 -11 -5 -73 19 -86 33 -3 3 -16 6 -30 8 -14 1 -45 17
-69 34 -24 17 -42 26 -40 20 14 -38 196 -122 266 -122 33 0 112 34 166 72 15
11 27 16 27 11 -1 -11 -75 -57 -124 -77 -89 -37 -209 -4 -336 92 -58 44 -78
38 -173 -45 -20 -18 -45 -33 -55 -33 -12 1 -9 5 11 16 36 20 34 23 -7 10 -19
-6 -32 -14 -30 -18 3 -5 -6 -12 -20 -18 -27 -10 -51 -45 -41 -60 10 -15 27
-12 50 10 19 18 26 19 48 9 33 -15 41 -38 28 -84 -12 -45 3 -55 30 -21 25 32
34 32 76 3 34 -23 46 -60 17 -55 -10 2 -20 -7 -26 -22 -5 -13 -6 -21 -2 -18 4
4 20 0 36 -8 27 -14 32 -14 47 0 25 22 44 20 76 -9 26 -25 28 -35 10 -77 -5
-14 -2 -18 13 -18 11 0 23 7 26 16 3 8 10 13 15 9 5 -3 13 0 17 6 4 8 3 9 -4
5 -7 -4 -12 -2 -12 3 0 14 15 14 43 -1 32 -18 38 -30 31 -59 -3 -19 0 -28 11
-33 21 -8 35 0 35 20 0 23 44 16 74 -11 20 -18 25 -30 20 -49 -4 -18 -1 -27
14 -35 17 -9 22 -6 32 19 9 22 19 30 37 30 30 0 65 -18 58 -30 -8 -13 13 -60
28 -60 7 0 20 13 28 28 13 26 17 28 46 20 24 -6 37 -18 47 -42 22 -52 45 -54
37 -4 -3 20 38 27 68 12 29 -14 31 -19 26 -48 -4 -21 -3 -27 3 -17 8 11 11 9
17 -8 11 -36 41 -22 37 17 -2 18 0 33 5 34 30 5 61 4 57 -3 -3 -5 2 -9 10 -9
9 0 16 -12 18 -32 2 -23 9 -34 22 -36 16 -3 18 1 14 31 -4 38 14 57 54 57 36
0 46 -12 44 -54 -1 -27 4 -40 14 -43 9 -3 11 -1 5 4 -14 11 -17 33 -6 33 6 0
13 -5 16 -11 4 -6 13 -8 20 -5 8 3 16 0 19 -7 2 -7 5 -3 5 8 1 11 4 30 7 43 5
19 3 21 -12 16 -13 -5 -16 -4 -9 4 15 16 73 22 83 9 5 -7 12 -25 16 -40 9 -38
30 -29 34 15 3 34 5 36 44 36 l40 1 -7 -45 c-6 -42 -5 -44 17 -41 13 1 29 11
36 22 12 19 12 19 7 -5 -5 -20 -4 -22 4 -10 6 8 9 31 5 51 -5 33 -3 37 20 43
29 7 56 -1 57 -18 3 -49 11 -60 36 -52 15 5 18 13 15 42 -5 42 16 63 64 64 26
0 33 -5 39 -27 5 -23 30 -52 45 -53 7 0 3 61 -5 81 -5 12 2 19 25 27 26 10 32
9 37 -6 18 -50 63 -69 63 -26 0 14 5 35 11 46 8 15 8 19 0 14 -6 -4 -11 -3
-11 2 0 6 12 13 26 16 27 7 54 -7 54 -28 0 -6 -5 -3 -11 7 -5 9 -18 17 -27 17
-28 0 29 -34 61 -36 24 -2 28 0 23 17 -3 10 -9 28 -12 39 -5 15 0 22 20 30 22
8 36 5 74 -15 26 -14 39 -25 29 -25 -10 0 -16 -4 -13 -9 10 -16 47 0 42 18 -3
9 -8 30 -11 46 -4 24 -3 26 4 10 9 -19 10 -19 10 3 1 36 30 39 56 6 l23 -29
36 17 c36 17 45 32 27 42 -5 4 -12 0 -14 -6 -3 -7 -6 4 -6 25 -1 30 3 39 22
46 17 7 26 4 43 -16 18 -22 23 -24 42 -14 13 7 20 16 17 21 -3 6 1 7 9 4 24
-9 30 20 12 55 -15 29 -15 31 7 46 21 15 23 14 44 -12 l22 -27 28 24 c15 14
32 27 36 31 4 3 0 23 -10 43 -15 32 -15 38 -3 46 22 14 36 12 54 -6 14 -13 16
-13 16 -1 0 8 -7 17 -15 21 -19 7 -19 17 1 42 14 18 15 18 4 -4 -10 -20 -8
-26 7 -38 16 -12 21 -14 38 -14 3 0 4 3 3 6 -2 3 5 10 15 15 18 11 23 45 7 51
-6 2 -12 17 -13 33 -2 24 2 31 21 33 13 2 24 -3 28 -12 9 -24 47 -19 67 10 18
24 18 25 -12 60 -17 19 -31 40 -30 47 0 8 3 7 6 -2 4 -11 10 -9 23 9 16 22 18
22 49 5 36 -18 41 -15 73 44 11 20 10 25 -7 37 -11 7 -27 19 -35 26 -8 7 -18
12 -23 10 -4 -1 -1 8 8 21 11 18 22 23 40 19 14 -2 28 -8 31 -13 3 -5 12 -9
20 -9 8 0 12 5 9 11 -4 6 2 13 13 16 31 8 38 53 12 73 -27 20 -23 47 10 69 18
12 22 13 15 2 -6 -11 -4 -13 8 -8 10 4 16 2 14 -5 -1 -6 4 -13 11 -15 9 -3 12
2 10 13 -2 11 2 18 10 16 12 -2 40 44 31 51 -49 37 -60 47 -51 47 5 0 8 10 4
22 -5 20 -3 21 37 14 41 -6 42 -5 56 28 19 45 19 66 0 66 -14 0 -35 29 -35 50
0 6 5 8 10 5 6 -3 10 0 10 8 0 9 15 17 39 21 30 5 40 11 45 30 9 34 -1 52 -35
67 -27 10 -30 16 -27 48 3 38 16 43 65 27 29 -9 51 27 31 51 -7 9 -13 23 -13
32 0 8 -11 21 -23 27 -17 8 -20 13 -10 17 10 4 10 8 -2 17 -13 10 -13 11 1 7
9 -3 22 -1 30 4 10 6 10 9 2 9 -7 0 -13 5 -13 11 0 5 4 8 9 5 5 -4 12 0 14 6
4 8 6 7 6 -4 1 -9 6 -20 13 -24 7 -5 8 -3 3 6 -5 8 25 -18 65 -56 40 -38 98
-93 129 -121 30 -29 60 -53 65 -53 6 0 -20 28 -58 63 -83 74 -139 133 -142
150 -2 7 -5 22 -8 35 -4 19 2 26 25 24 3 -1 6 6 6 14 0 10 -7 12 -20 8 -13 -4
-17 -2 -13 5 4 6 15 11 26 11 11 0 22 11 29 30 5 17 15 30 20 30 6 0 17 15 25
33 7 17 23 41 34 53 11 11 23 35 27 52 3 18 14 36 23 42 9 5 14 10 9 10 -9 0
20 72 33 80 5 3 12 26 15 50 3 24 10 49 16 56 6 7 8 23 4 35 -5 15 -4 19 4 14
8 -5 10 1 5 21 -5 19 -4 25 5 20 6 -4 11 -1 11 9 0 9 -4 14 -9 11 -12 -8 0 48
13 56 8 5 7 8 -1 8 -7 0 -13 12 -13 26 0 14 4 23 9 20 5 -4 12 0 14 6 3 7 6 3
6 -10 1 -23 31 -64 31 -43 0 6 7 11 15 11 8 0 15 -4 15 -10 0 -5 10 -10 23
-11 21 -1 21 -1 -3 -9 -17 -5 -19 -8 -7 -9 9 -1 16 -4 16 -8 -3 -18 2 -33 10
-33 6 0 8 9 6 20 -3 13 2 20 12 20 13 0 13 -3 3 -15 -10 -12 -10 -15 4 -15 15
0 17 -4 20 -40 1 -9 9 -14 20 -12 14 3 17 -1 13 -12 -4 -9 -2 -16 2 -16 5 0 7
-9 4 -20 -3 -12 1 -22 11 -26 9 -3 13 -11 9 -18 -14 -22 -10 -32 11 -32 15 1
21 -5 22 -24 1 -14 4 -34 8 -45 7 -18 6 -18 -4 -2 -13 20 -30 14 -29 -11 0
-14 2 -13 8 3 8 19 8 19 15 -3 4 -12 12 -19 18 -16 6 4 6 -2 -1 -15 -7 -11 -8
-21 -2 -21 15 0 21 -30 10 -52 -6 -12 -7 -18 -1 -14 5 3 13 -1 16 -10 3 -8 2
-13 -2 -10 -4 2 -6 -30 -5 -72 1 -43 -2 -92 -7 -109 -5 -19 -5 -35 1 -38 4 -3
11 4 14 17 11 44 20 205 14 244 -4 21 -9 64 -12 94 -5 53 -36 161 -59 207 -6
11 -7 26 -4 32 4 6 3 11 -2 11 -8 0 -102 143 -102 155 0 3 -20 26 -45 53 -25
26 -53 59 -63 75 -9 15 -24 30 -34 33 -10 3 -17 14 -17 27 1 23 -5 73 -16 122
-5 25 -4 27 5 12 6 -9 15 -15 20 -12 5 3 18 2 28 -4 19 -10 42 -1 73 30 29 29
23 32 -20 7 l-39 -22 -40 27 c-35 25 -40 34 -46 80 -4 29 -14 60 -23 69 -14
16 -14 17 6 13 15 -3 21 1 21 15 0 21 -50 60 -79 63 -11 0 -18 4 -15 8 2 4 -5
14 -16 22 -17 12 -33 31 -93 108 -26 33 -77 138 -77 157 0 21 42 42 86 42 31
0 90 50 72 61 -8 5 -16 2 -21 -6 -10 -19 -43 -19 -51 0 -7 20 35 50 46 32 6
-9 8 -9 8 1 0 7 13 24 28 37 43 36 81 122 77 173 -2 30 0 40 8 35 7 -4 6 1 -2
11 -10 11 -16 13 -21 6 -4 -6 -7 3 -8 19 0 17 4 31 9 31 5 0 9 -5 9 -11 0 -5
5 -7 10 -4 15 9 12 47 -7 82 -22 39 -100 83 -149 83 -26 0 -33 3 -28 13 5 7 0
6 -11 -3 -11 -9 -16 -10 -11 -2 4 7 1 12 -8 12 -9 0 -16 -6 -16 -12 0 -10 -2
-10 -8 0 -9 14 -102 13 -102 -1 0 -5 -4 -5 -10 -2 -5 3 -10 -1 -10 -9 0 -9 -5
-16 -11 -16 -5 0 -7 6 -3 13 3 6 -8 -3 -25 -20 -18 -18 -37 -33 -42 -33 -6 0
-7 -4 -4 -10 3 -5 1 -10 -5 -10 -6 0 -9 -4 -6 -9 3 -5 -1 -12 -9 -15 -8 -3
-15 -9 -14 -13 3 -20 -14 -52 -25 -46 -6 3 -3 -2 6 -13 17 -17 17 -19 -4 -41
-13 -14 -17 -23 -9 -23 10 0 11 -3 2 -14 -12 -14 -22 -58 -46 -192 -10 -63
-11 -106 -4 -185 5 -57 12 -110 14 -118 7 -18 -33 -56 -67 -65 -36 -8 -38 17
-6 52 l23 24 -43 40 c-42 39 -44 39 -68 23 -39 -25 -56 -13 -52 37 l3 43 -54
22 -54 22 -19 -25 c-19 -23 -46 -35 -33 -14 3 6 1 10 -4 10 -17 0 -13 60 4 66
13 5 11 10 -8 28 -54 49 -54 49 -86 30 -25 -15 -32 -15 -46 -4 -14 12 -14 15
1 38 16 25 16 26 -17 53 -38 32 -67 37 -75 14 -8 -20 -43 -19 -51 1 -3 8 0 26
7 39 15 29 10 38 -36 60 -36 17 -37 17 -54 -5 -10 -13 -24 -21 -36 -18 -15 3
-19 11 -17 44 2 31 -2 42 -20 53 -37 24 -63 22 -76 -6 -18 -40 -46 -26 -46 22
1 43 -16 64 -50 65 -12 0 -24 -10 -30 -22 -14 -31 -71 -33 -69 -3 1 11 4 27 8
36 5 12 0 18 -21 24 -23 5 -31 2 -49 -20 -29 -37 -57 -25 -52 22 3 26 0 37
-14 44 -25 14 -65 1 -71 -23 -7 -27 -31 -18 -36 13 -4 29 -17 39 -54 39 -20 0
-30 -7 -37 -25 -12 -30 -50 -35 -50 -6 0 37 -12 51 -42 51 -23 0 -31 -6 -40
-31 -13 -37 -51 -38 -56 -1 -5 33 -46 30 -68 -6 -12 -22 -22 -28 -40 -24 -13
2 -24 11 -24 18 0 8 -4 14 -10 14 -5 0 -9 5 -7 12 3 18 -32 22 -39 3z m2041
-64 c-8 -14 -45 -20 -52 -9 -3 6 -1 8 4 5 6 -4 16 0 23 8 12 15 35 11 25 -4z
m39 4 c-4 -8 -10 -12 -15 -9 -11 6 -2 24 11 24 5 0 7 -7 4 -15z m31 5 c3 -5 1
-10 -4 -10 -6 0 -11 5 -11 10 0 6 2 10 4 10 3 0 8 -4 11 -10z m75 -10 c6 -11
8 -20 6 -20 -3 0 -10 9 -16 20 -6 11 -8 20 -6 20 3 0 10 -9 16 -20z m50 -10
c0 -5 -2 -10 -4 -10 -3 0 -8 5 -11 10 -3 6 -1 10 4 10 6 0 11 -4 11 -10z
m-100 -31 c68 -4 145 -86 155 -167 3 -19 0 -22 -17 -16 -18 5 -19 4 -7 -9 8
-8 17 -13 21 -11 13 8 -11 -59 -29 -79 -40 -47 -49 -55 -79 -70 -48 -25 -166
1 -181 39 -9 25 -23 4 -23 -35 0 -35 70 -191 104 -231 20 -23 116 -185 158
-265 43 -82 85 -191 99 -255 6 -25 15 -65 20 -90 16 -68 18 -317 3 -403 -7
-41 -23 -103 -34 -138 -28 -82 -90 -199 -107 -199 -7 0 -13 -6 -13 -14 0 -18
-76 -85 -120 -104 -19 -8 -55 -25 -80 -36 -91 -41 -214 -20 -263 46 -24 33
-38 136 -16 123 12 -7 12 -6 0 9 -11 13 -11 20 -3 28 7 7 12 18 12 26 0 23 54
68 95 80 72 20 165 -16 193 -74 13 -28 14 -37 3 -43 -9 -6 -6 -10 11 -14 34
-10 35 -10 57 26 62 101 39 247 -97 607 -46 122 -122 341 -133 385 -4 17 -21
76 -38 133 -37 124 -46 194 -45 327 1 101 25 215 44 215 6 0 9 3 9 8 -3 19 2
33 10 28 5 -4 7 2 5 12 -6 22 87 127 107 120 8 -3 22 6 32 18 19 25 54 34 102
28 17 -3 37 -5 45 -5z m138 -6 c6 -19 -25 -16 -32 3 -4 11 -1 14 11 12 9 -2
18 -9 21 -15z m22 -33 c8 -5 11 -10 5 -10 -5 0 -17 5 -25 10 -8 5 -10 10 -5
10 6 0 17 -5 25 -10z m-2290 -225 c10 6 23 -25 14 -34 -3 -3 -14 5 -25 18 -10
13 -19 18 -19 12 0 -7 -4 -9 -10 -6 -5 3 -10 1 -10 -6 0 -7 -2 -10 -5 -7 -9 8
6 38 16 32 5 -3 9 1 9 8 0 8 5 6 11 -5 6 -9 14 -15 19 -12z m74 1 c12 -4 23
-2 28 6 6 9 8 5 6 -12 -2 -20 -9 -26 -35 -28 -19 -2 -33 1 -33 7 0 6 8 11 18
11 16 1 16 1 0 11 -10 5 -18 15 -18 22 0 8 3 9 8 1 4 -6 16 -14 26 -18z m-179
4 c-3 -5 -12 -10 -18 -10 -7 0 -6 4 3 10 19 12 23 12 15 0z m238 -15 c-3 -9
-8 -14 -10 -11 -3 3 -2 9 2 15 9 16 15 13 8 -4z m68 -5 c1 17 3 20 6 7 2 -9 9
-15 14 -11 11 7 79 -17 79 -28 0 -12 -13 -10 -38 8 -12 8 -27 12 -33 8 -12 -7
-89 -14 -89 -8 0 3 5 13 12 23 11 18 12 18 29 -3 l18 -21 2 25z m32 -50 c104
-11 197 -38 197 -57 0 -8 4 -12 9 -9 5 4 7 -3 4 -14 -3 -11 -10 -20 -17 -20
-6 0 -3 -7 8 -15 18 -13 17 -15 -5 -47 -45 -64 -41 -63 -142 -43 -51 11 -128
22 -172 27 -44 4 -84 8 -90 8 -16 2 -125 -10 -190 -22 -104 -17 -175 -21 -175
-10 0 7 -7 9 -17 5 -11 -4 -14 -3 -9 5 6 10 -3 16 -24 14 -3 0 -4 17 -2 39 2
21 8 36 13 33 5 -3 9 0 9 5 0 6 -5 11 -11 11 -5 0 -2 13 7 30 20 33 47 41 194
59 151 19 246 19 413 1z m-1626 -192 c-3 -8 -6 -5 -6 6 -1 11 2 17 5 13 3 -3
4 -12 1 -19z m2299 14 c7 -4 12 -19 12 -34 0 -26 -1 -27 -28 -13 -46 24 -46
44 0 54 3 0 10 -3 16 -7z m-26 -68 c41 -25 84 -54 96 -65 11 -11 24 -16 29
-12 4 5 5 3 2 -3 -4 -6 14 -25 38 -43 25 -18 45 -40 45 -50 0 -9 -18 -37 -40
-61 -22 -24 -43 -52 -46 -62 -7 -22 -20 -23 -32 -3 -4 9 -22 23 -40 33 -50 27
-246 163 -260 181 -7 9 -15 15 -17 14 -3 -2 -13 -3 -22 -3 -15 0 -16 2 -3 9 8
6 18 7 24 4 5 -3 6 -1 3 4 -4 6 6 20 22 32 28 22 111 70 121 71 3 0 39 -21 80
-46z m-705 20 c122 -9 209 -70 136 -95 -17 -6 -29 -14 -26 -18 2 -5 -8 -14
-23 -22 -15 -8 -29 -17 -32 -21 -11 -14 -134 -67 -143 -61 -5 3 -7 16 -4 30 2
13 -2 52 -11 86 -14 58 -25 76 -45 77 -11 0 -48 -90 -42 -100 3 -5 0 -30 -6
-55 -9 -36 -15 -45 -28 -40 -9 4 -20 8 -26 9 -52 11 -168 82 -159 97 3 5 -1 7
-8 4 -20 -8 -67 41 -61 63 3 14 23 23 81 35 125 27 164 28 397 11z m866 -29
c9 -3 20 -13 23 -21 4 -10 2 -13 -6 -8 -7 4 -8 3 -4 -5 4 -7 16 -9 28 -5 19 6
19 5 -3 -25 -18 -24 -25 -28 -37 -19 -8 8 -12 25 -10 46 4 29 2 32 -8 17 -17
-23 -48 -15 -52 14 -3 16 0 21 8 16 9 -5 10 -1 5 15 l-7 23 23 -21 c12 -12 30
-24 40 -27z m-1766 8 c0 -12 6 -28 14 -35 11 -11 13 -9 7 15 -8 33 -3 33 64 1
63 -30 65 -27 -70 -109 -52 -32 -115 -75 -139 -96 -24 -21 -47 -36 -52 -33 -5
3 -9 0 -9 -5 0 -14 -37 -51 -51 -51 -5 0 -7 5 -4 10 9 15 -5 51 -17 44 -7 -4
-8 -2 -4 5 10 16 -2 48 -19 48 -11 0 -12 -5 -3 -21 7 -13 -2 -8 -22 12 -27 27
-31 36 -19 43 8 5 18 9 23 9 4 0 6 7 3 14 -7 16 75 91 158 144 40 27 58 32 95
30 39 -3 45 -6 45 -25z m2161 2 c4 -8 10 -15 16 -15 5 0 6 6 2 13 -4 6 -3 8 1
4 10 -8 13 -23 19 -80 3 -30 -3 -48 -28 -85 -36 -54 -137 -130 -146 -110 -3 7
-12 13 -20 13 -8 0 -14 6 -12 13 1 8 -1 11 -6 8 -5 -3 -14 6 -21 20 -18 41
-31 18 -14 -26 9 -22 20 -37 25 -33 10 5 6 -14 -13 -64 -4 -12 -22 -29 -39
-38 l-31 -16 17 33 c22 42 26 88 7 88 -8 0 -12 4 -9 8 3 5 -16 9 -41 11 -56 3
-83 -18 -83 -64 0 -46 21 -68 64 -69 20 -1 34 -5 32 -11 -2 -5 -9 -9 -15 -7
-6 1 -11 -2 -11 -8 0 -27 -82 6 -100 41 -18 32 -15 74 6 95 45 44 86 74 95 68
5 -3 8 0 7 7 -5 19 20 22 26 2 3 -13 4 -12 3 4 -1 12 3 21 8 20 6 -1 9 -5 8
-9 -2 -5 2 -8 7 -8 13 0 13 6 0 30 -9 17 0 29 61 87 39 38 81 73 93 80 30 18
85 16 92 -2z m-2724 -31 c32 -17 98 -78 98 -91 0 -4 -7 -17 -15 -27 -8 -11
-12 -29 -9 -41 7 -27 -33 -74 -56 -67 -10 3 -8 -2 5 -15 11 -11 21 -17 23 -12
2 4 10 5 18 2 10 -4 13 1 12 18 -2 18 2 24 15 23 9 -1 29 11 44 26 l26 28 36
-21 c49 -28 90 -76 97 -115 5 -25 1 -39 -19 -65 -56 -74 -107 -71 -174 11 -48
59 -105 111 -120 112 -24 0 -130 109 -137 140 -7 35 19 97 43 103 36 10 84 6
113 -9z m2404 -87 c-18 -18 -28 -22 -35 -14 -17 22 32 66 52 47 5 -4 -3 -19
-17 -33z m-1588 -17 c7 0 12 -4 12 -8 0 -5 23 -22 52 -37 28 -16 70 -44 91
-64 108 -98 185 -179 196 -207 14 -36 11 -89 -4 -89 -6 0 -28 -17 -49 -38 -34
-34 -40 -37 -54 -24 -23 19 -84 39 -93 30 -4 -5 -9 -29 -10 -54 -3 -60 -20
-85 -48 -70 -26 14 -98 14 -107 0 -4 -7 -8 -24 -9 -38 -1 -14 -3 -32 -3 -38
-3 -19 -62 -45 -91 -40 -57 11 -77 -33 -49 -110 11 -29 10 -35 -12 -58 -16
-17 -30 -23 -45 -19 -16 4 -28 -2 -44 -22 -25 -32 -26 -47 -5 -68 8 -9 12 -16
7 -16 -4 0 -1 -5 7 -10 10 -7 11 -10 2 -10 -8 0 -11 -9 -8 -26 3 -15 2 -24 -1
-20 -4 3 -13 0 -22 -8 -24 -22 -126 -24 -149 -3 -10 9 -23 17 -28 17 -5 0 -20
12 -34 27 -14 14 -39 32 -57 39 -32 14 -53 34 -34 34 6 0 3 9 -6 19 -9 11 -20
18 -25 15 -4 -3 -8 1 -8 9 0 7 -15 27 -32 44 -18 18 -46 48 -61 67 -16 20 -32
34 -36 32 -4 -3 -7 3 -8 12 -1 9 -2 34 -4 54 -2 27 5 46 24 72 15 19 27 39 27
45 0 19 49 103 92 158 55 69 175 193 188 193 5 0 7 6 5 13 -8 22 81 107 152
144 37 19 75 41 83 48 24 20 62 38 95 45 23 5 38 1 61 -17 17 -13 36 -23 42
-23z m1156 20 c17 -10 39 -32 50 -47 19 -29 49 -53 126 -100 25 -16 58 -42 75
-58 16 -17 45 -41 63 -53 17 -13 32 -32 32 -42 0 -11 9 -24 20 -30 16 -9 18
-15 10 -36 -19 -49 -10 -89 40 -188 32 -64 65 -114 93 -140 73 -69 74 -72 38
-102 -17 -14 -29 -29 -26 -34 8 -12 -85 -100 -106 -100 -13 0 -19 -8 -20 -22
-1 -13 -5 -4 -11 20 -5 24 -18 52 -29 63 -19 19 -19 19 -14 -8 5 -24 5 -25 -5
-10 -6 10 -13 30 -16 45 -2 15 -23 44 -46 65 -23 21 -46 46 -52 56 -43 73 -63
100 -92 121 -17 14 -40 38 -51 53 -19 30 -193 173 -193 160 0 -5 -5 0 -11 10
-6 9 -15 14 -21 11 -6 -4 -8 -3 -5 3 10 16 -45 61 -78 65 -18 2 -30 9 -30 18
0 8 -9 16 -20 18 -24 5 -55 36 -55 55 0 8 26 36 59 63 32 27 67 61 77 76 10
15 38 34 62 44 24 9 46 22 49 30 7 20 50 17 87 -6z m-647 -32 c-3 -7 -5 -2 -5
12 0 14 2 19 5 13 2 -7 2 -19 0 -25z m-1224 -33 c-3 -9 -8 -14 -10 -11 -3 3
-2 9 2 15 9 16 15 13 8 -4z m1207 0 c0 -8 -4 -15 -10 -15 -5 0 -7 7 -4 15 4 8
8 15 10 15 2 0 4 -7 4 -15z m-1191 -37 c-8 -14 -14 -18 -17 -10 -4 13 17 46
25 38 3 -2 -1 -15 -8 -28z m1221 25 c0 -5 5 -39 11 -78 5 -38 14 -108 19 -155
5 -47 16 -130 25 -185 21 -133 47 -324 47 -353 1 -33 -6 -36 -56 -22 -43 12
-45 14 -44 46 1 19 -9 57 -22 84 -21 45 -22 53 -9 76 7 14 12 44 11 65 -2 21
-3 55 -2 74 0 19 0 50 0 68 0 26 -4 117 -10 207 -1 8 2 34 6 57 5 32 2 49 -11
69 -9 15 -12 24 -7 20 6 -3 13 3 17 14 6 19 25 28 25 13z m1593 -28 c-3 -9 -8
-14 -10 -11 -3 3 -2 9 2 15 9 16 15 13 8 -4z m79 -12 c10 -9 18 -21 18 -28 0
-7 9 -20 20 -30 12 -10 18 -25 15 -33 -3 -10 1 -12 16 -7 14 5 20 3 18 -7 -1
-7 -1 -21 0 -32 1 -15 4 -16 16 -6 13 11 14 9 1 -15 -8 -16 -13 -32 -10 -37 3
-5 0 -16 -7 -24 -10 -13 -10 -17 2 -25 13 -8 5 -13 -15 -10 -5 1 -12 -3 -16
-9 -4 -7 -27 -13 -51 -15 -24 -2 -56 -8 -70 -13 -15 -6 -29 -9 -32 -6 -2 2
-27 -11 -56 -30 -28 -19 -51 -29 -51 -23 -1 7 -9 -5 -20 -27 -11 -21 -25 -45
-32 -53 -7 -9 -12 -48 -12 -101 -1 -80 2 -91 32 -145 18 -31 47 -77 66 -101
18 -25 40 -58 47 -75 8 -17 19 -31 26 -31 7 0 10 -13 9 -32 -2 -18 -4 -43 -5
-55 0 -14 -7 -23 -17 -23 -11 0 -15 6 -11 20 3 13 1 20 -6 18 -17 -4 -83 62
-187 187 -51 61 -118 139 -150 175 -117 130 -150 171 -150 186 0 8 -4 13 -9
10 -12 -8 -21 45 -14 75 11 44 72 60 131 33 33 -15 33 -15 75 25 38 38 42 46
43 94 1 28 2 57 3 63 0 7 19 12 41 12 22 1 38 -3 35 -8 -3 -4 4 -6 14 -3 11 3
28 -4 40 -16 24 -24 40 -26 101 -7 41 12 46 17 60 61 14 40 49 85 68 85 3 0
14 -7 24 -17z m583 -31 c-6 -7 -45 9 -45 18 0 4 11 3 24 -3 14 -7 23 -13 21
-15z m-2295 -57 c-10 -42 -11 -58 -2 -67 17 -17 15 -54 -3 -82 -14 -21 -14
-27 1 -60 14 -28 15 -41 7 -58 -16 -33 -22 -78 -10 -78 5 0 7 -9 4 -19 -2 -10
-1 -24 3 -31 4 -7 2 -28 -6 -46 -16 -39 -18 -90 -4 -99 7 -4 7 -12 0 -25 -7
-14 -6 -19 6 -24 15 -6 14 -9 -5 -25 -11 -10 -18 -21 -15 -24 9 -8 -39 -19
-67 -15 -20 2 -24 8 -23 38 1 41 14 142 43 335 12 77 26 174 32 215 15 105 15
103 24 123 5 13 11 15 18 8 7 -7 6 -28 -3 -66z m2297 -27 c-3 -8 -6 -5 -6 6
-1 11 2 17 5 13 3 -3 4 -12 1 -19z m-1167 3 c0 -5 -7 -11 -15 -15 -15 -5 -20
5 -8 17 9 10 23 9 23 -2z m-2370 -56 c0 -15 6 -25 14 -25 8 0 27 -11 42 -25
15 -14 30 -25 33 -25 3 0 12 -4 20 -9 11 -7 4 -24 -35 -83 -26 -40 -67 -111
-91 -158 -31 -63 -42 -78 -43 -59 0 18 -7 28 -20 32 -10 3 -22 17 -26 31 -8
31 1 45 18 28 16 -16 28 -15 28 2 0 17 -22 26 -47 20 -14 -4 -23 2 -31 21 -18
40 -14 77 13 117 14 20 25 40 25 43 0 7 38 63 64 93 25 29 36 28 36 -3z m1580
-2 c0 13 4 13 33 -1 184 -94 452 -364 618 -622 37 -57 43 -103 11 -78 -10 7
-14 9 -10 4 8 -9 -16 -37 -29 -35 -4 1 -18 -2 -31 -6 -17 -6 -20 -11 -12 -20
9 -11 7 -12 -9 -8 -11 3 -26 11 -32 19 -6 8 -22 14 -34 14 -13 0 -33 11 -44
26 -21 27 -28 50 -13 40 16 -10 2 79 -16 104 -10 13 -34 28 -53 33 -54 14 -69
33 -69 88 0 60 -27 91 -78 87 -18 -1 -35 -6 -38 -10 -3 -4 -12 -4 -22 -1 -32
11 -52 36 -52 65 0 60 -44 97 -114 95 -42 -1 -76 28 -76 64 0 10 -4 19 -10 19
-5 0 -10 9 -10 21 0 11 -4 18 -9 15 -5 -4 -7 4 -4 16 7 28 43 65 44 46 0 -7 5
3 11 22 l10 35 19 -24 c13 -16 19 -19 19 -8z m1491 -26 c-8 -8 -11 -7 -11 4 0
20 13 34 18 19 3 -7 -1 -17 -7 -23z m-3267 -96 c-6 -30 13 -101 46 -168 18
-37 18 -61 0 -33 -34 53 -68 183 -57 215 10 25 17 17 11 -14z m3358 -77 c10
-20 9 -27 -2 -34 -18 -11 -50 16 -50 42 0 28 38 23 52 -8z m-168 -10 c6 -15 8
-15 26 1 19 17 20 17 21 -1 0 -18 1 -18 10 1 8 17 9 16 6 -7 -4 -24 -2 -26 16
-17 14 8 18 8 13 0 -4 -6 -1 -11 7 -11 8 0 17 -10 20 -22 6 -21 7 -22 27 -3
39 36 62 -22 23 -61 -13 -13 -23 -34 -23 -47 0 -26 36 -71 51 -62 16 10 47 -5
52 -26 4 -15 -2 -23 -29 -34 -37 -15 -40 -22 -22 -60 11 -24 17 -27 63 -29 13
-1 21 -9 23 -23 3 -17 -3 -22 -24 -25 -26 -3 -37 -14 -48 -50 -4 -12 -16 -18
-36 -18 -19 0 -29 4 -25 10 4 6 11 7 17 4 7 -4 8 -2 4 5 -4 6 -12 9 -17 5 -5
-3 -17 0 -25 7 -18 15 -106 19 -116 5 -4 -6 -13 -5 -21 3 -13 10 -15 9 -10
-11 3 -17 2 -19 -5 -9 -8 11 -10 11 -15 0 -4 -10 -6 -9 -6 3 -1 9 -12 29 -26
44 -13 14 -22 31 -18 37 3 5 1 7 -5 3 -6 -3 -19 4 -29 16 -20 26 -74 64 -85
60 -5 -1 -8 3 -8 8 0 6 -11 15 -25 20 -14 5 -26 14 -26 20 -1 5 -2 16 -3 23
-1 6 4 18 11 25 14 14 9 32 -8 32 -6 0 -8 -4 -4 -9 3 -5 0 -13 -7 -17 -7 -4
-10 -4 -6 1 4 4 3 14 -3 21 -12 15 -5 44 11 44 5 0 10 -7 10 -15 0 -8 5 -15
10 -15 7 0 7 6 1 19 -8 14 -7 22 4 31 8 7 15 24 16 39 0 23 1 24 9 6 8 -19 14
-8 11 21 -1 7 9 9 24 6 16 -3 25 0 25 8 0 7 -7 10 -17 5 -14 -5 -15 -3 -7 5
15 15 56 3 48 -13 -3 -7 2 -3 10 7 9 11 16 17 16 13 0 -4 9 -3 20 3 15 8 20 8
20 -2 0 -8 5 -6 11 4 5 10 16 15 24 12 9 -4 15 0 15 10 0 21 16 21 24 0z m235
-155 c16 -47 14 -54 -19 -54 -23 0 -32 6 -42 29 -10 25 -9 31 7 42 29 21 42
17 54 -17z m411 -29 c0 -5 -2 -10 -4 -10 -3 0 -8 5 -11 10 -3 6 -1 10 4 10 6
0 11 -4 11 -10z m47 -40 c1 -10 -2 -22 -7 -25 -6 -4 -10 6 -8 24 2 32 10 33
15 1z m-3706 -68 c53 -71 57 -82 9 -32 -45 48 -80 98 -80 115 1 6 9 0 18 -13
9 -13 33 -44 53 -70z m3749 48 c0 -4 -11 -12 -25 -18 -23 -11 -24 -10 -14 7
11 17 39 25 39 11z m-447 -90 c6 -23 3 -25 -26 -25 -63 1 -78 36 -24 58 35 15
40 12 50 -33z m-2240 28 c4 -10 8 -9 17 2 9 12 10 11 5 -7 -5 -17 -2 -23 9
-23 10 0 16 -9 16 -24 0 -33 -18 -43 -35 -20 -8 11 -15 15 -15 11 0 -4 -6 -2
-14 5 -7 7 -11 19 -8 27 3 9 1 12 -6 7 -16 -9 -15 1 1 19 15 18 24 19 30 3z
m-1175 -77 c79 -48 174 -143 201 -201 9 -19 24 -41 34 -48 18 -14 24 -52 8
-52 -5 0 -22 28 -39 63 -60 130 -223 266 -328 275 -48 4 -54 2 -92 -33 -24
-21 -48 -55 -58 -83 -19 -52 -41 -84 -29 -42 25 85 77 154 129 169 49 14 94 2
174 -48z m1617 17 c-6 -33 -15 -51 -15 -30 0 7 -4 12 -10 12 -5 0 -7 -8 -4
-17 5 -15 4 -16 -5 -3 -15 21 -14 30 7 31 10 0 12 3 5 6 -7 2 -13 9 -13 14 0
4 7 6 15 3 8 -4 15 -1 15 5 0 6 2 11 5 11 3 0 3 -14 0 -32z m-531 -13 c42 -19
76 -39 76 -43 0 -9 -25 -33 -48 -46 -7 -4 -11 -3 -10 2 2 5 -21 35 -50 66 -30
31 -51 56 -49 56 3 0 40 -16 81 -35z m-122 -7 c-9 -9 -12 -7 -12 12 0 19 3 21
12 12 9 -9 9 -15 0 -24z m89 -51 c9 -9 19 -14 22 -11 2 3 5 -7 5 -21 0 -45
-17 -38 -42 18 -13 30 -29 58 -35 61 -6 4 -11 12 -11 19 0 6 10 -3 23 -19 12
-17 29 -38 38 -47z m369 43 c0 -12 -31 -17 -74 -12 -26 3 -34 7 -25 13 17 10
99 9 99 -1z m335 2 c-62 -53 -99 -75 -113 -66 -23 15 -26 34 -5 34 10 1 34 9
53 20 35 19 83 28 65 12z m-1809 -32 c1 -8 2 -23 3 -33 0 -10 5 -16 10 -12 16
9 21 -27 11 -70 -5 -22 -9 -62 -9 -90 l1 -50 9 58 c17 115 43 178 68 162 7 -4
28 -31 47 -61 22 -35 39 -51 48 -48 15 6 40 -29 30 -39 -4 -3 3 -18 15 -33 11
-15 21 -30 21 -34 0 -8 -64 -26 -127 -35 -23 -4 -47 -13 -54 -21 -9 -11 -5
-17 25 -29 20 -8 36 -20 36 -25 0 -5 18 -13 40 -16 70 -11 81 -72 25 -132 -19
-20 -53 -60 -76 -89 -23 -29 -46 -50 -51 -47 -25 15 -36 68 -41 192 -2 74 -9
138 -14 143 -5 5 -5 -36 0 -99 4 -59 7 -142 5 -185 -2 -42 0 -77 5 -77 4 0 7
-5 7 -11 0 -5 -4 -7 -10 -4 -5 3 -10 1 -10 -4 0 -6 -9 -11 -19 -11 -15 0 -18
5 -13 23 5 20 4 21 -11 8 -14 -11 -20 -11 -34 0 -15 13 -15 12 -5 -8 16 -29
15 -33 -8 -33 -11 0 -20 4 -20 8 0 5 -11 14 -23 19 -19 9 -26 24 -36 75 -6 34
-16 86 -22 113 -9 48 -6 245 6 350 8 73 26 135 37 129 5 -3 12 3 15 15 3 11 9
18 14 15 5 -3 16 -1 25 4 22 12 79 -1 80 -18z m3489 -28 l-6 -40 -34 11 c-39
12 -37 32 6 41 18 3 29 12 29 22 0 10 3 15 6 11 3 -3 3 -23 -1 -45z m-2071 16
c18 -28 6 -96 -20 -115 -32 -23 -95 -13 -132 22 -31 28 -33 34 -23 53 16 30
78 61 123 62 28 0 41 -6 52 -22z m184 -20 c37 -22 62 -64 62 -103 0 -19 -8
-29 -34 -42 -33 -15 -36 -15 -78 10 -51 30 -67 46 -73 76 -2 12 -6 24 -8 29
-8 12 12 54 23 47 5 -3 10 -1 10 5 0 16 56 3 98 -22z m-1254 -33 c22 -19 35
-35 29 -35 -6 0 -28 16 -49 35 -49 45 -31 45 20 0z m597 -8 c-10 -20 -25 -57
-32 -82 -14 -48 -34 -64 -22 -17 8 34 42 113 56 130 18 23 17 6 -2 -31z m1896
21 c-3 -8 -6 -5 -6 6 -1 11 2 17 5 13 3 -3 4 -12 1 -19z m-1149 -23 c-3 -3 -9
2 -12 12 -6 14 -5 15 5 6 7 -7 10 -15 7 -18z m89 3 c-3 -8 -6 -5 -6 6 -1 11 2
17 5 13 3 -3 4 -12 1 -19z m1018 -12 c8 -34 17 -240 17 -369 0 -85 -4 -123
-14 -140 -8 -12 -18 -35 -22 -50 l-7 -28 -34 28 c-18 15 -34 31 -34 35 -1 4
-11 18 -23 32 -46 50 -67 83 -73 117 -8 46 17 69 97 89 47 12 63 21 69 39 7
18 5 24 -11 28 -11 3 -18 9 -15 13 3 5 0 12 -6 16 -6 3 -15 1 -19 -6 -5 -9 -9
-8 -13 3 -4 10 -17 14 -36 13 -16 -1 -28 2 -25 6 10 17 -15 7 -26 -9 -11 -17
-11 -17 -6 -1 3 10 0 20 -6 24 -7 4 -5 10 6 16 9 5 16 14 16 20 0 5 21 31 48
57 26 26 55 59 65 74 20 30 44 27 52 -7z m475 24 c0 -5 -5 -10 -11 -10 -5 0
-7 5 -4 10 3 6 8 10 11 10 2 0 4 -4 4 -10z m-2226 -14 c-4 -11 0 -13 18 -9 21
6 22 5 9 -10 -7 -9 -19 -17 -27 -17 -20 0 -27 19 -14 35 16 19 21 19 14 1z
m711 5 c3 -5 2 -12 -3 -15 -5 -3 -9 1 -9 9 0 17 3 19 12 6z m1352 -16 c0 -8
-4 -15 -9 -15 -4 0 -8 7 -8 15 0 8 4 15 8 15 5 0 9 -7 9 -15z m-1397 -5 c0 -5
-5 -10 -11 -10 -5 0 -7 5 -4 10 3 6 8 10 11 10 2 0 4 -4 4 -10z m1725 0 c3 -5
-1 -10 -9 -10 -9 0 -16 5 -16 10 0 6 4 10 9 10 6 0 13 -4 16 -10z m45 -24 c0
-5 -7 -3 -15 4 -8 7 -12 17 -9 22 7 10 24 -9 24 -26z m-643 2 c-3 -8 -6 -5 -6
6 -1 11 2 17 5 13 3 -3 4 -12 1 -19z m-1755 -15 c-6 -3 -9 -9 -6 -15 4 -6 -2
-8 -16 -3 -16 5 -20 4 -15 -5 10 -16 -37 -2 -47 14 -17 25 6 38 28 16 7 -7 17
-5 30 4 13 10 22 11 29 4 7 -7 6 -12 -3 -15z m181 -4 c9 -12 17 -30 17 -41 0
-27 -42 -98 -58 -98 -7 0 -11 -4 -8 -9 3 -5 -16 -11 -42 -14 -29 -3 -50 -1
-54 6 -15 24 24 161 50 177 24 15 74 3 95 -21z m-1518 -182 c0 -219 7 -259 61
-342 l25 -40 -39 45 c-58 65 -74 131 -73 305 1 146 10 235 23 235 2 0 3 -91 3
-203z m3462 178 c-21 -20 -48 -20 -40 1 4 11 8 12 13 4 5 -8 11 -6 20 5 7 8
15 13 18 11 2 -3 -3 -12 -11 -21z m-1360 -7 c-3 -8 -6 -5 -6 6 -1 11 2 17 5
13 3 -3 4 -12 1 -19z m43 7 c0 -8 -4 -15 -10 -15 -5 0 -10 7 -10 15 0 8 5 15
10 15 6 0 10 -7 10 -15z m997 0 c4 -4 3 -5 -3 -2 -18 10 -25 -20 -9 -33 8 -7
12 -16 9 -21 -3 -5 -2 -9 3 -8 28 5 35 -1 22 -18 -13 -17 -13 -17 7 0 28 24
34 22 34 -13 0 -24 3 -28 18 -23 14 5 15 4 4 -8 -11 -12 -15 -11 -26 4 -12 16
-14 16 -20 2 -3 -9 -14 -15 -23 -14 -48 4 -51 1 -51 -60 0 -52 2 -58 19 -54
15 4 17 13 14 44 -4 40 4 46 39 33 12 -5 14 -10 6 -19 -8 -9 -6 -14 4 -18 17
-7 28 16 20 41 -5 15 -4 15 9 -1 10 -13 14 -30 10 -53 -5 -30 -3 -34 16 -34
14 0 25 -9 31 -25 14 -38 0 -191 -27 -288 -3 -13 -11 -17 -24 -14 -10 3 -19 1
-19 -4 0 -5 8 -9 18 -9 15 -1 15 -2 -2 -15 -18 -14 -15 -20 7 -16 5 1 5 -3 2
-9 -5 -8 -13 -6 -26 6 -17 15 -24 13 -20 -8 2 -13 -5 -9 -25 14 -10 12 -13 18
-6 14 6 -4 12 -2 12 3 0 6 7 11 16 11 8 0 12 5 8 11 -3 6 -19 9 -35 7 -15 -3
-26 -1 -23 4 3 4 0 8 -6 8 -6 0 -8 5 -5 10 3 6 1 11 -4 11 -6 1 -15 3 -21 4
-5 1 -15 3 -21 4 -7 1 -9 13 -5 34 12 67 26 235 26 310 -1 53 3 77 11 77 9 0
9 3 0 14 -10 11 -10 20 -1 37 8 15 9 19 1 15 -16 -10 -24 19 -12 42 11 20 33
24 48 7z m190 -15 c1 -12 -4 -20 -13 -20 -12 0 -12 4 -4 20 6 11 12 20 13 20
2 0 3 -9 4 -20z m-3280 -40 c-1 -27 -4 -50 -7 -50 -4 0 -6 -11 -6 -25 0 -14 4
-25 8 -25 5 0 6 -28 3 -62 -3 -35 -6 -70 -6 -78 0 -31 -11 -91 -16 -87 -15 15
-17 63 -14 316 0 32 15 61 32 61 5 0 7 -22 6 -50z m3143 36 c0 -3 -7 -12 -16
-20 -16 -17 -34 -13 -34 7 0 8 3 8 9 -1 6 -10 10 -10 21 3 12 15 20 19 20 11z
m196 -31 c-17 -26 -36 -33 -36 -14 0 5 5 7 11 3 7 -4 10 -1 7 7 -3 8 2 19 11
26 23 17 26 7 7 -22z m-1640 15 c54 -21 119 -110 80 -110 -20 0 -30 17 -14 23
8 3 5 6 -6 6 -10 1 -26 9 -35 19 -43 47 -122 49 -175 5 -42 -35 -48 -48 -49
-104 -1 -41 4 -54 28 -79 16 -17 45 -35 65 -40 38 -10 101 0 126 21 25 20 44
65 44 104 0 28 4 35 19 35 25 0 34 -15 33 -53 -1 -53 -30 -101 -82 -136 -46
-32 -54 -33 -110 -28 -69 6 -127 44 -154 101 -18 38 -21 101 -6 111 6 3 10 16
10 29 0 22 31 57 80 89 29 18 106 22 146 7z m2004 0 c0 -5 -4 -10 -10 -10 -5
0 -10 5 -10 10 0 6 5 10 10 10 6 0 10 -4 10 -10z m-1758 -19 c12 -12 22 -37
25 -64 4 -36 1 -49 -16 -66 -26 -26 -72 -27 -94 -3 -14 16 -41 112 -33 119 4
4 80 32 89 32 4 1 17 -8 29 -18z m1230 -15 c2 -19 0 -32 -4 -30 -8 5 -12 64
-4 64 2 0 6 -15 8 -34z m-942 -16 c80 -11 172 -25 205 -31 92 -17 172 -29 262
-39 46 -5 88 -12 95 -16 21 -13 -24 -22 -60 -12 -40 11 -55 2 -28 -17 25 -19
13 -33 -27 -32 -18 1 -37 -2 -42 -5 -6 -3 -39 -9 -75 -12 -36 -4 -81 -9 -101
-12 -20 -3 -56 -7 -80 -9 -24 -2 -87 -11 -140 -19 -53 -8 -110 -13 -127 -12
-17 1 -29 -2 -26 -6 3 -4 -6 -8 -20 -8 -14 0 -28 5 -32 11 -4 8 -9 7 -15 -2
-15 -22 -2 66 13 90 9 15 19 20 33 16 58 -17 86 -17 111 -1 22 15 32 16 75 5
39 -10 53 -10 73 0 15 9 35 11 53 6 57 -14 111 -17 132 -6 17 9 30 7 65 -9 34
-15 51 -18 69 -11 42 16 45 35 6 28 -19 -3 -53 0 -76 6 -32 8 -54 8 -85 0 -35
-10 -47 -9 -65 3 -25 16 -89 19 -98 4 -8 -13 -61 -13 -85 0 -13 7 -31 5 -63
-7 -38 -14 -52 -15 -84 -5 -59 18 -65 25 -68 82 l-4 52 32 -5 c18 -3 97 -15
177 -27z m-984 -47 c-1 -62 -3 -68 -23 -71 -13 -2 -33 4 -45 12 -36 25 -43 19
-10 -9 17 -14 39 -25 51 -25 19 0 21 -6 21 -50 l0 -51 -52 6 c-29 4 -60 9 -68
12 -8 3 -42 7 -75 10 -33 2 -73 8 -90 13 -26 8 -242 43 -347 57 -45 6 -74 32
-37 34 l24 1 -25 8 c-14 4 -32 8 -40 9 -13 1 -13 0 0 -9 16 -11 15 -11 -17
-15 -14 -1 -23 3 -23 11 0 9 -12 14 -32 14 -58 0 -16 18 57 25 39 3 113 12
165 20 95 13 193 25 390 46 58 6 112 12 120 14 56 11 57 9 56 -62z m2046 -12
c-5 -28 -7 -62 -5 -75 3 -13 1 -32 -5 -41 -7 -14 -11 -9 -16 26 -3 24 -3 55 0
69 3 14 9 40 11 58 4 21 9 30 15 24 6 -6 6 -28 0 -61z m-1639 43 c-3 -14 -23
-17 -23 -2 0 11 -2 11 -9 0 -4 -8 -19 -19 -32 -26 -80 -39 -40 -156 47 -140
57 10 90 63 71 113 -6 18 -17 29 -24 27 -7 -3 -15 -1 -18 5 -4 5 1 12 10 15
23 9 59 -39 62 -84 5 -60 -5 -82 -42 -98 -119 -49 -215 34 -164 143 16 33 27
43 57 50 43 11 68 10 65 -3z m887 6 c0 -5 -4 -10 -10 -10 -5 0 -10 5 -10 10 0
6 5 10 10 10 6 0 10 -4 10 -10z m-1946 -20 c-22 -9 -29 -6 -20 9 4 6 14 7 23
4 15 -6 14 -7 -3 -13z m1041 -39 c5 -10 -28 -33 -52 -37 -20 -3 -15 13 9 30
26 18 35 20 43 7z m-353 -23 c-7 -7 -12 -8 -12 -2 0 6 3 14 7 17 3 4 9 5 12 2
2 -3 -1 -11 -7 -17z m720 -28 c-4 -28 -16 -39 -25 -22 -2 4 0 22 5 41 11 41
27 26 20 -19z m-578 -13 c16 -36 17 -48 7 -87 -13 -48 -49 -96 -63 -82 -5 5
-11 19 -13 32 -3 13 -11 28 -20 32 -19 11 -38 84 -27 104 13 24 62 52 81 47 9
-2 25 -23 35 -46z m-147 -14 c-3 -10 -5 -4 -5 12 0 17 2 24 5 18 2 -7 2 -21 0
-30z m1947 21 c3 -8 2 -12 -4 -9 -6 3 -10 10 -10 16 0 14 7 11 14 -7z m-1570
-25 c-3 -5 -10 -7 -15 -3 -5 3 -7 10 -3 15 3 5 10 7 15 3 5 -3 7 -10 3 -15z
m226 1 c0 -11 30 -7 30 4 0 6 6 2 12 -9 16 -27 21 -85 8 -85 -5 0 -10 -8 -10
-18 0 -28 -38 -62 -69 -62 -20 0 -34 8 -46 26 -20 31 -14 61 20 102 14 17 25
34 25 39 0 5 7 10 15 10 8 0 15 -3 15 -7z m98 -25 c-3 -3 -9 2 -12 12 -6 14
-5 15 5 6 7 -7 10 -15 7 -18z m1260 0 c-3 -3 -9 2 -12 12 -6 14 -5 15 5 6 7
-7 10 -15 7 -18z m-2600 -1 c-10 -10 -100 -16 -94 -6 3 4 26 9 53 11 26 1 44
-1 41 -5z m122 -14 c21 -7 17 -8 -20 -8 -25 0 -54 3 -65 8 -27 11 49 11 85 0z
m-260 -9 c0 -5 -6 -14 -14 -20 -7 -6 -16 -24 -19 -39 -6 -27 -115 -168 -124
-159 -2 3 15 31 40 64 24 32 56 82 72 111 26 47 45 66 45 43z m2810 -18 c0
-19 -3 -24 -10 -17 -6 6 -8 18 -4 27 9 24 14 21 14 -10z m-2015 -23 c3 -5 1
-10 -4 -10 -6 0 -11 5 -11 10 0 6 2 10 4 10 3 0 8 -4 11 -10z m1216 -1 c31
-16 79 -89 79 -119 0 -15 11 -44 25 -64 29 -43 32 -87 9 -142 -17 -42 -13
-116 8 -141 24 -29 19 -68 -12 -98 -40 -39 -55 -92 -36 -131 32 -64 30 -78
-12 -119 -26 -24 -44 -52 -51 -80 -8 -33 -22 -51 -66 -86 -65 -52 -193 -128
-217 -128 -9 -1 -18 -5 -20 -10 -1 -5 -14 -12 -28 -16 -21 -5 -38 7 -117 83
-50 49 -101 104 -112 123 -12 19 -21 30 -21 24 0 -5 -8 2 -17 15 -10 14 -17
27 -16 30 1 3 -9 11 -23 18 -13 7 -24 17 -24 23 0 5 -9 19 -20 31 -11 12 -20
29 -20 39 0 9 -7 20 -16 23 -8 3 -12 11 -8 17 3 6 0 15 -7 20 -23 14 -2 21 22
8 21 -11 26 -9 43 15 11 14 25 40 31 58 16 49 39 57 71 25 30 -30 74 -36 94
-12 16 19 5 32 -13 17 -27 -22 -5 52 22 76 21 18 33 22 61 17 69 -11 84 -8
113 26 17 21 25 39 21 49 -4 8 -9 32 -12 53 -5 41 0 43 56 27 29 -8 37 -6 57
14 22 22 23 28 14 63 -6 21 -15 42 -20 48 -5 5 -9 19 -9 32 0 18 7 23 38 28
56 10 56 10 70 49 12 32 12 40 0 54 -33 39 12 69 63 41z m823 -25 c5 -14 4
-15 -9 -4 -17 14 -19 20 -6 20 5 0 12 -7 15 -16z m-1769 -36 c17 -10 23 -18
15 -18 -10 0 -11 -3 -4 -8 17 -11 28 -52 14 -52 -6 0 -8 -6 -4 -12 5 -10 4
-10 -6 -1 -9 8 -17 9 -30 1 -14 -9 -29 -7 -65 6 -54 21 -71 48 -56 88 16 43
59 41 136 -4z m2155 16 c0 -16 -2 -16 -24 -8 -9 3 -16 11 -16 16 0 6 8 4 17
-3 15 -12 16 -12 10 4 -4 11 -3 16 3 12 6 -3 10 -13 10 -21z m-340 1 c0 -8 -4
-15 -10 -15 -5 0 -7 7 -4 15 4 8 8 15 10 15 2 0 4 -7 4 -15z m-1603 -29 c36
-34 36 -51 3 -80 -16 -13 -27 -26 -25 -28 3 -2 -15 -3 -38 -3 -55 2 -87 20
-87 48 0 47 11 64 48 74 58 16 71 15 99 -11z m1628 14 c3 -5 1 -10 -4 -10 -6
0 -11 5 -11 10 0 6 2 10 4 10 3 0 8 -4 11 -10z m-981 -25 c-9 -14 -19 -23 -22
-20 -5 4 26 45 35 45 2 0 -4 -11 -13 -25z m1021 15 c3 -5 1 -10 -4 -10 -6 0
-11 5 -11 10 0 6 2 10 4 10 3 0 8 -4 11 -10z m-2173 -9 c-7 -4 -12 -12 -11
-17 2 -5 -1 -20 -5 -33 -6 -18 -10 -21 -17 -10 -6 10 -9 11 -9 2 0 -22 -14
-14 -27 13 -14 30 -8 48 13 40 8 -3 14 -1 14 4 0 6 12 10 28 10 18 0 23 -3 14
-9z m98 -21 c0 -5 -2 -10 -4 -10 -3 0 -8 5 -11 10 -3 6 -1 10 4 10 6 0 11 -4
11 -10z m-21 -33 c0 -9 -2 -9 -6 1 -2 6 -9 12 -14 12 -4 0 -6 -7 -2 -16 3 -8
12 -13 20 -10 13 5 73 -19 73 -29 0 -2 -46 -27 -101 -55 -98 -48 -135 -56
-106 -22 7 10 29 44 47 77 18 33 37 63 43 67 14 9 47 -9 46 -25z m622 20 c9
-7 33 -46 54 -87 21 -43 30 -69 21 -61 -14 12 -16 12 -10 -2 4 -12 -18 -6 -85
25 -98 44 -115 68 -66 90 23 10 29 8 62 -23 36 -34 37 -23 1 17 -11 12 -16 28
-12 37 7 20 13 21 35 4z m-571 -17 c0 -5 -2 -10 -4 -10 -3 0 -8 5 -11 10 -3 6
-1 10 4 10 6 0 11 -4 11 -10z m443 -5 c-3 -9 -8 -14 -10 -11 -3 3 -2 9 2 15 9
16 15 13 8 -4z m828 -4 c8 -38 5 -48 -13 -43 -11 2 -17 10 -14 18 3 7 1 16 -5
19 -14 9 -1 25 16 18 8 -3 16 -8 16 -12z m-577 -46 c-4 -8 -8 -15 -10 -15 -2
0 -4 7 -4 15 0 8 4 15 10 15 5 0 7 -7 4 -15z m-552 -23 c9 -9 6 -12 -15 -12
-17 0 -27 5 -27 14 0 17 25 15 42 -2z m1162 -4 c-5 -7 -2 -9 8 -5 21 8 78 -44
78 -70 0 -13 6 -20 16 -19 11 1 17 -9 20 -29 2 -18 0 -25 -5 -17 -6 10 -10 8
-14 -7 -3 -12 -1 -24 5 -27 5 -3 7 -12 4 -20 -3 -7 -1 -16 4 -19 11 -7 13 -87
4 -122 -4 -13 -13 -23 -22 -23 -8 0 -13 -3 -9 -6 3 -3 1 -19 -5 -36 -8 -21
-13 -26 -19 -17 -5 9 -10 5 -14 -13 -4 -16 -16 -29 -31 -32 -13 -4 -23 -10
-21 -14 1 -4 -10 -20 -25 -35 -20 -20 -28 -23 -28 -12 0 8 5 15 10 15 6 0 10
10 10 22 0 21 -1 21 -13 3 -13 -17 -14 -17 -20 5 -3 12 -10 19 -15 16 -5 -3
-12 7 -15 22 -6 27 3 40 65 83 34 25 31 99 -6 138 -42 44 -43 81 -5 119 28 27
31 36 26 71 -3 22 -3 42 0 45 10 9 24 -5 17 -16z m-1015 -14 c10 -9 -35 -3
-49 6 -11 8 -7 9 15 4 17 -4 32 -8 34 -10z m75 8 c2 -4 -4 -8 -14 -8 -10 0
-16 4 -14 8 3 4 9 8 14 8 5 0 11 -4 14 -8z m107 -26 c5 3 9 0 9 -6 0 -6 5 -8
10 -5 10 6 70 -15 70 -25 0 -11 -139 -89 -159 -90 -10 0 -12 9 -7 38 10 58 28
96 37 80 6 -9 10 -8 15 7 5 11 9 14 12 7 2 -7 8 -10 13 -6z m-251 -22 c8 -21
6 -33 -11 -60 -15 -25 -19 -44 -15 -67 17 -95 17 -109 6 -137 -10 -24 -9 -33
6 -59 17 -29 17 -32 1 -60 -21 -36 -21 -55 -1 -87 15 -22 15 -30 4 -64 -11
-33 -10 -45 3 -79 11 -27 13 -42 6 -47 -7 -4 -8 -21 -5 -43 10 -54 9 -82 -2
-93 -12 -12 -24 59 -52 312 -12 102 -30 244 -40 317 -11 73 -20 146 -20 163 0
30 0 30 55 30 51 0 56 -2 65 -26z m-1492 -1 c62 -8 52 -30 -11 -25 -11 1 -31
12 -45 24 -20 15 -22 19 -7 13 11 -4 39 -10 63 -12z m1642 -22 c0 -19 -7 -43
-17 -53 -11 -12 -12 -18 -3 -18 8 0 10 -7 5 -22 -8 -29 -14 -61 -21 -118 -3
-25 -11 -48 -17 -52 -8 -5 -8 -8 3 -8 11 0 11 -3 2 -12 -7 -7 -12 -29 -12 -50
0 -50 -22 -178 -31 -178 -4 0 -10 -7 -13 -16 -4 -11 -2 -15 8 -11 13 5 13 1 5
-21 -6 -15 -12 -46 -14 -69 -2 -24 -7 -52 -10 -64 l-7 -21 -15 22 c-14 19 -13
23 1 33 14 10 15 17 5 47 -6 19 -16 39 -20 44 -14 15 -10 39 10 65 19 25 19
25 -5 60 -22 32 -22 37 -9 58 19 28 19 67 1 96 -13 19 -13 27 4 62 24 50 24
52 0 82 -27 35 -25 69 5 89 19 12 25 25 25 53 l0 36 60 0 60 1 0 -35z m-1560
25 c0 -2 -7 -7 -16 -10 -8 -3 -12 -2 -9 4 6 10 25 14 25 6z m850 -21 c0 -8 -2
-15 -4 -15 -2 0 -6 7 -10 15 -3 8 -1 15 4 15 6 0 10 -7 10 -15z m330 -7 c0
-10 2 -10 9 0 7 11 10 10 15 -3 3 -9 4 -21 0 -26 -3 -5 0 -9 5 -9 6 0 11 -7
11 -14 0 -8 11 -27 25 -42 14 -15 25 -34 25 -42 0 -20 -56 32 -76 70 -14 27
-52 42 -109 41 -22 0 -24 1 -7 4 12 2 20 8 18 12 -3 4 8 6 23 3 16 -2 32 1 35
7 10 15 26 14 26 -1z m623 -5 c-7 -2 -19 -2 -25 0 -7 3 -2 5 12 5 14 0 19 -2
13 -5z m-758 -13 c3 -5 2 -10 -4 -10 -5 0 -13 5 -16 10 -3 6 -2 10 4 10 5 0
13 -4 16 -10z m-855 -55 c0 -5 -5 -3 -10 5 -5 8 -10 20 -10 25 0 6 5 3 10 -5
5 -8 10 -19 10 -25z m18 -42 c35 -26 38 -39 21 -77 -22 -48 -61 -42 -61 8 0
16 -6 26 -15 26 -11 0 -11 4 -3 20 6 12 8 30 4 42 -7 23 0 21 54 -19z m-129
-10 c-12 -21 -34 -56 -49 -78 -39 -60 -70 -139 -70 -180 0 -33 20 -79 71 -164
11 -18 18 -35 15 -38 -2 -3 -12 8 -22 24 -9 15 -28 44 -41 64 -34 52 -44 95
-33 143 12 55 51 146 61 146 5 0 9 9 9 20 0 11 5 20 11 20 5 0 7 5 4 10 -3 6
-2 10 4 10 5 0 18 14 28 30 9 17 21 30 26 30 5 0 -1 -17 -14 -37z m2585 21
c22 -21 22 -99 1 -90 -8 3 -15 0 -16 -7 -2 -24 -17 39 -18 76 -1 40 8 46 33
21z m-1383 -152 c-7 -11 -10 -5 -16 26 -3 23 -3 47 1 54 12 18 26 -60 15 -80z
m1437 30 c14 12 14 10 3 -10 -7 -13 -10 -26 -7 -30 3 -3 6 0 6 6 0 7 5 12 10
12 6 0 10 -6 10 -14 0 -16 31 -16 43 -1 5 6 6 -2 3 -18 -5 -20 -2 -29 9 -33
33 -13 -4 -97 -92 -211 -26 -34 -52 -62 -56 -62 -5 -1 -6 3 -3 8 3 5 -3 11
-14 14 -22 6 -28 -8 -7 -16 7 -3 7 -6 1 -6 -6 -1 -19 9 -30 21 -10 12 -13 18
-5 13 9 -5 12 -3 9 6 -3 8 -13 13 -22 11 -9 -2 -25 3 -37 11 -17 13 -18 15 -4
21 10 4 14 2 9 -6 -5 -7 -3 -8 6 -3 9 6 11 4 5 -5 -6 -9 -4 -11 4 -6 21 13
-17 48 -40 36 -30 -17 -33 -11 -7 13 14 12 27 27 29 32 10 26 55 85 65 85 6 0
14 12 17 28 7 34 69 121 75 104 3 -10 7 -10 20 0z m642 -17 c0 -8 -2 -15 -4
-15 -2 0 -6 7 -10 15 -3 8 -1 15 4 15 6 0 10 -7 10 -15z m-1780 -105 c0 -5 -2
-10 -4 -10 -3 0 -8 5 -11 10 -3 6 -1 10 4 10 6 0 11 -4 11 -10z m1709 -54 c7
-8 8 -17 3 -19 -4 -3 -13 3 -20 14 -14 22 0 26 17 5z m-3219 -77 c0 -10 5 -19
10 -19 6 0 10 -7 10 -15 0 -8 5 -15 11 -15 5 0 7 -4 4 -10 -3 -5 -1 -10 4 -10
14 0 14 -47 0 -55 -5 -4 -19 1 -29 10 -21 19 -56 85 -52 99 2 4 -5 15 -15 23
-10 8 -13 12 -8 10 6 -2 19 -1 30 3 25 10 35 4 35 -21z m1794 -301 c70 -70
133 -128 139 -128 5 0 2 10 -9 22 -10 12 -14 18 -8 15 7 -4 14 -1 17 6 3 8 44
36 92 63 47 27 122 72 166 101 45 28 86 50 92 47 7 -3 27 -37 44 -75 l33 -71
-23 -19 c-12 -11 -41 -33 -65 -50 -24 -17 -39 -35 -36 -41 4 -6 3 -8 -3 -5 -6
4 -42 -9 -81 -28 -73 -36 -102 -43 -102 -24 0 6 -7 8 -16 5 -9 -4 -27 5 -44
22 -26 25 -50 38 -50 27 0 -2 26 -24 58 -47 31 -24 63 -49 70 -55 7 -7 18 -13
24 -13 6 0 9 -3 5 -6 -11 -11 -121 63 -186 125 -35 34 -70 61 -78 61 -7 0 -18
12 -23 26 -6 14 -14 23 -19 19 -6 -3 -34 25 -64 62 -30 38 -76 88 -101 112
-26 24 -60 63 -77 87 -16 24 -36 44 -44 44 -8 0 -15 5 -15 11 0 5 5 7 10 4 6
-3 10 -1 10 5 0 6 35 -31 78 -82 42 -51 135 -150 206 -220z m967 239 c-13 -24
-17 -25 -20 -10 -2 10 -8 21 -14 25 -8 5 -6 9 5 13 10 4 14 13 11 23 -5 14 -2
13 14 -3 19 -19 20 -22 4 -48z m-275 -24 c7 -10 14 -14 14 -9 0 5 13 -5 30
-24 l29 -33 -19 -27 c-10 -15 -35 -38 -55 -51 -19 -13 -38 -32 -41 -42 -5 -16
-8 -16 -37 5 -18 13 -34 22 -37 20 -3 -1 -6 3 -6 8 -1 6 -2 15 -3 21 0 5 -5 8
-10 4 -5 -3 -13 0 -17 6 -4 8 -3 9 4 5 7 -4 12 -1 12 9 0 11 -5 15 -16 11 -8
-3 -13 -2 -9 3 3 5 -1 11 -7 14 -19 7 12 57 53 85 39 27 92 25 115 -5z m236
-1 c-7 -2 -12 -12 -12 -23 0 -21 -55 -87 -65 -78 -3 4 1 14 10 23 10 10 14 25
11 38 -3 13 -3 17 0 11 9 -19 26 -16 22 5 -4 25 10 42 29 35 11 -4 13 -8 5
-11z m-2650 -53 l-10 -34 -1 45 c-1 31 2 41 10 33 7 -7 7 -21 1 -44z m1385 4
c-3 -10 -5 -4 -5 12 0 17 2 24 5 18 2 -7 2 -21 0 -30z m1190 -5 c-3 -8 -6 -5
-6 6 -1 11 2 17 5 13 3 -3 4 -12 1 -19z m-1377 -15 c0 -19 -13 -9 -16 12 -1 8
2 13 7 9 5 -3 9 -12 9 -21z m-10 -43 c0 -12 -24 -31 -76 -60 -56 -30 -105 -70
-180 -146 -57 -57 -104 -100 -104 -95 0 4 45 53 101 108 66 65 123 112 164
134 50 26 65 40 69 62 6 30 26 28 26 -3z m208 -4 c4 8 14 3 27 -13 11 -14 29
-33 40 -42 10 -9 44 -40 75 -70 41 -40 43 -44 10 -15 -25 21 -51 44 -58 51
-16 15 -36 18 -27 3 3 -5 2 -10 -4 -10 -16 0 -22 18 -9 23 7 2 -8 17 -34 33
-26 16 -47 36 -48 44 0 13 1 13 10 0 7 -10 12 -12 18 -4z m1132 4 c-8 -6 -24
-16 -35 -22 -20 -11 -20 -11 -1 11 11 11 26 21 35 21 14 0 14 -2 1 -10z m71
-51 c24 -22 44 -48 44 -57 1 -9 7 -16 13 -14 7 1 20 -14 28 -34 13 -31 13 -42
2 -78 -8 -22 -19 -40 -26 -39 -7 2 -12 -3 -12 -10 0 -8 -18 -20 -40 -27 -36
-12 -44 -11 -76 6 -20 10 -39 27 -42 37 -2 9 -8 17 -13 17 -5 0 -24 16 -44 35
-30 31 -34 39 -24 57 9 16 8 19 -2 13 -9 -6 -10 -3 -4 11 4 10 7 28 7 38 -1
26 29 48 45 34 10 -8 13 -6 13 6 0 9 5 16 10 16 6 0 10 -4 10 -10 0 -5 5 -10
10 -10 6 0 10 5 10 10 0 15 22 39 36 40 6 0 31 -18 55 -41z m-1215 -36 c-11
-11 -19 6 -11 24 8 17 8 17 12 0 3 -10 2 -21 -1 -24z m1574 23 c0 -3 -4 -8
-10 -11 -5 -3 -10 -1 -10 4 0 6 5 11 10 11 6 0 10 -2 10 -4z m-1809 -25 c-16
-10 -6 -31 15 -31 9 0 14 -7 12 -17 -2 -10 4 -25 13 -34 11 -11 15 -26 11 -44
-4 -21 -2 -26 8 -20 9 6 10 3 0 -14 -12 -23 -30 -20 -30 4 0 8 -6 12 -13 10
-7 -3 -26 7 -43 23 -29 26 -62 33 -48 10 4 -6 2 -8 -3 -5 -6 4 -13 21 -17 39
-5 26 -9 30 -16 18 -8 -13 -10 -12 -10 4 0 12 5 16 15 12 9 -3 21 4 31 19 9
14 21 25 26 25 5 0 3 -7 -6 -15 -8 -9 -12 -23 -9 -32 4 -11 8 -13 11 -5 2 7 9
9 14 6 7 -4 8 -2 4 4 -9 15 15 52 34 52 12 0 13 -2 1 -9z m203 2 c-5 -5 -12
-12 -16 -18 -4 -6 -8 -2 -8 8 0 9 7 17 17 17 9 0 12 -3 7 -7z m62 -24 c-3 -24
-1 -29 10 -25 8 3 14 -1 14 -9 0 -16 18 -30 27 -21 3 3 0 12 -7 21 -7 8 -8 15
-2 15 12 0 24 -28 17 -40 -3 -4 2 -10 10 -14 16 -6 21 -36 5 -36 -5 0 -6 7 -3
17 4 11 3 14 -5 9 -16 -9 -15 -33 0 -38 8 -3 3 -11 -12 -21 -22 -13 -76 -21
-132 -18 -19 1 -25 27 -8 33 5 2 12 26 15 53 5 49 23 75 52 75 7 0 13 7 13 15
0 8 3 15 6 15 3 0 3 -14 0 -31z m-1456 -36 c0 4 15 0 33 -10 17 -9 35 -16 40
-15 13 4 7 -20 -14 -49 -15 -22 -28 -29 -53 -29 -65 0 -99 67 -54 112 20 20
22 20 35 3 7 -11 13 -16 13 -12z m1547 -5 c-3 -8 -6 -5 -6 6 -1 11 2 17 5 13
3 -3 4 -12 1 -19z m-1477 2 c0 -5 -4 -10 -10 -10 -5 0 -10 5 -10 10 0 6 5 10
10 10 6 0 10 -4 10 -10z m1301 -27 c-12 -20 -14 -14 -5 12 4 9 9 14 11 11 3
-2 0 -13 -6 -23z m1005 -20 c-10 -10 -19 5 -10 18 6 11 8 11 12 0 2 -7 1 -15
-2 -18z m-2236 9 c0 -13 -12 -22 -22 -16 -10 6 -1 24 13 24 5 0 9 -4 9 -8z
m2630 -7 c0 -8 -2 -15 -4 -15 -2 0 -6 7 -10 15 -3 8 -1 15 4 15 6 0 10 -7 10
-15z m-1001 -147 c11 -24 21 -59 21 -77 0 -42 -33 -104 -69 -130 -45 -32 -50
-25 -8 10 93 77 85 168 -28 300 l-47 54 55 -56 c30 -32 64 -77 76 -101z m-689
127 c7 -9 21 -13 31 -10 14 5 16 2 12 -16 -5 -19 -3 -21 15 -17 15 4 19 2 15
-9 -3 -8 -12 -12 -20 -8 -8 3 -36 8 -62 10 -52 6 -105 25 -95 34 10 10 54 8
55 -4 0 -5 4 0 9 13 11 26 23 28 40 7z m1350 -4 c0 -5 -7 -12 -16 -15 -24 -9
-28 -7 -14 9 14 17 30 20 30 6z m-869 -14 c-6 -8 -8 -17 -4 -20 3 -4 1 -7 -5
-7 -13 0 -16 22 -5 33 12 13 25 7 14 -6z m745 -9 c-3 -13 -5 -25 -5 -28 -1 -3
-5 1 -10 9 -6 9 -5 19 2 27 16 18 17 17 13 -8z m-46 8 c0 -3 -4 -8 -10 -11 -5
-3 -10 -1 -10 4 0 6 5 11 10 11 6 0 10 -2 10 -4z m-561 -45 c12 -16 21 -34 21
-40 0 -6 5 -11 11 -11 7 0 9 -10 7 -25 -3 -14 -2 -25 2 -25 17 0 19 -32 4 -55
-12 -18 -32 -27 -87 -39 -96 -19 -257 -36 -337 -36 -134 1 -414 47 -460 75
-13 8 -13 45 1 45 5 0 8 4 5 8 -3 5 3 18 13 28 9 11 15 26 13 33 -3 8 0 11 7
7 6 -4 11 -1 11 8 0 9 7 16 16 16 8 0 13 4 9 9 -11 19 12 19 120 0 133 -23
275 -24 409 -4 55 8 119 15 142 15 24 0 46 5 49 10 10 17 23 11 44 -19z m552
14 c12 -3 24 -7 27 -9 9 -9 -20 -36 -31 -29 -6 3 -7 1 -3 -5 11 -18 -51 -44
-86 -37 -21 5 -34 3 -40 -6 -7 -11 -8 -9 -4 4 3 10 6 22 6 27 0 4 19 4 41 -1
23 -6 44 -7 47 -4 3 3 0 5 -6 5 -7 0 -12 14 -12 33 0 23 3 28 9 17 6 -8 7 -18
5 -22 -3 -4 0 -8 6 -8 6 0 8 10 4 26 -5 19 -4 25 5 20 6 -4 21 -9 32 -11z
m-1724 -41 c-3 -3 -12 -4 -19 -1 -8 3 -5 6 6 6 11 1 17 -2 13 -5z m1768 -14
c-3 -5 -12 -10 -18 -10 -7 0 -6 4 3 10 19 12 23 12 15 0z m-1446 -38 c-28 -47
-20 -103 19 -142 33 -32 161 -74 287 -92 125 -18 351 -13 442 10 40 10 70 15
67 10 -3 -4 0 -8 7 -8 30 0 -3 -12 -47 -17 -27 -2 -56 -9 -65 -13 -8 -5 -49
-11 -89 -14 -41 -3 -105 -8 -143 -12 -52 -5 -71 -4 -77 6 -9 15 -24 18 -130
23 -49 3 -89 11 -115 24 -22 11 -53 23 -68 27 -51 12 -92 47 -105 87 -17 54
-15 77 9 115 28 46 35 43 8 -4z m1804 1 c-7 -2 -21 -2 -30 0 -10 3 -4 5 12 5
17 0 24 -2 18 -5z m-483 -17 c0 -3 -4 -8 -10 -11 -5 -3 -10 -1 -10 4 0 6 5 11
10 11 6 0 10 -2 10 -4z m488 -72 c2 -1 0 -4 -5 -7 -4 -3 -17 7 -27 22 l-20 26
25 -20 c13 -11 25 -21 27 -21z m-993 -53 c6 -10 -21 -41 -36 -41 -5 0 -9 5 -9
11 0 5 5 7 10 4 6 -3 10 3 10 14 0 22 14 28 25 12z m-702 -20 c3 -13 1 -18 -9
-14 -7 2 -10 11 -7 19 7 19 10 18 16 -5z m65 3 c5 3 20 -6 33 -21 13 -14 17
-22 9 -17 -8 5 -23 7 -32 6 -10 -2 -18 2 -18 9 0 8 -4 8 -15 -1 -13 -11 -15
-8 -15 15 0 23 2 25 15 15 8 -6 18 -9 23 -6z m1412 -1 c-14 -9 -28 -22 -32
-27 -5 -8 -8 -7 -8 1 0 13 38 43 54 43 6 0 -1 -8 -14 -17z m-1170 -16 c24 3
31 2 21 -5 -11 -8 -10 -12 7 -21 29 -15 37 -14 22 4 -10 13 -11 18 -1 28 10 9
12 9 9 -3 -2 -8 3 -14 10 -12 6 1 12 -6 12 -16 0 -20 -10 -23 -62 -23 -58 0
-68 2 -68 12 0 6 -5 7 -11 3 -6 -4 -9 1 -8 12 2 11 -1 26 -6 34 -8 12 -5 12
15 -1 16 -10 38 -15 60 -12z m-130 -2 c0 -8 -2 -15 -4 -15 -2 0 -6 7 -10 15
-3 8 -1 15 4 15 6 0 10 -7 10 -15z m227 -7 c-3 -8 -6 -5 -6 6 -1 11 2 17 5 13
3 -3 4 -12 1 -19z m127 -17 c3 -5 -3 -11 -15 -14 -16 -4 -18 -3 -8 9 13 16 16
17 23 5z m-119 -11 c3 -5 1 -10 -4 -10 -6 0 -11 5 -11 10 0 6 2 10 4 10 3 0 8
-4 11 -10z m75 6 c0 -2 -7 -7 -16 -10 -8 -3 -12 -2 -9 4 6 10 25 14 25 6z"/>
<path d="M4099 4013 c-8 -11 -22 -22 -32 -26 -16 -6 -18 -16 -15 -76 3 -42 11
-80 21 -95 24 -36 72 -59 108 -51 39 9 95 58 103 91 4 13 11 22 17 18 14 -8
-41 96 -63 120 -10 11 -23 16 -34 12 -11 -4 -15 -2 -11 7 3 8 -1 14 -9 14 -8
0 -14 -6 -14 -14 0 -19 -37 -16 -48 3 -8 15 -11 14 -23 -3z m11 -72 c0 -5 -4
-11 -10 -13 -5 -1 -11 -22 -12 -46 -1 -27 -4 -38 -10 -30 -11 18 -10 43 4 73
11 24 28 34 28 16z m84 -22 c-6 -10 -84 -52 -84 -45 0 3 5 17 10 31 8 22 15
26 35 23 14 -3 25 -1 25 4 0 5 5 6 10 3 6 -4 8 -11 4 -16z m19 -46 c9 -9 -23
-44 -34 -37 -5 3 -9 1 -9 -5 0 -7 -9 -6 -26 1 l-26 12 38 17 c46 21 49 21 57
12z"/>
<path d="M3907 3723 c-11 -10 -8 -41 4 -49 16 -9 41 20 33 39 -6 17 -25 22
-37 10z"/>
<path d="M3917 3603 c-24 -23 12 -102 39 -85 18 12 26 50 14 72 -10 19 -40 27
-53 13z m33 -48 c0 -8 -2 -15 -4 -15 -2 0 -6 7 -10 15 -3 8 -1 15 4 15 6 0 10
-7 10 -15z"/>
<path d="M3971 3457 c-25 -25 1 -87 36 -87 26 0 49 68 30 87 -12 11 -55 11
-66 0z m40 -27 c-4 -3 -13 -14 -19 -25 l-12 -20 4 20 c6 39 18 58 27 44 4 -8
4 -16 0 -19z"/>
<path d="M4034 3293 c-40 -37 -25 -76 39 -98 36 -12 38 -12 63 18 61 72 -31
146 -102 80z m92 -20 c10 -37 0 -58 -27 -61 -39 -5 -60 21 -47 55 14 36 66 41
74 6z"/>
<path d="M4100 3114 c-37 -33 -40 -41 -40 -86 0 -45 4 -54 36 -85 20 -19 43
-32 50 -29 7 3 16 1 20 -5 4 -7 10 -6 18 0 7 6 16 8 20 4 13 -13 86 86 86 117
0 13 -1 13 -10 0 -8 -11 -9 -8 -4 12 5 23 0 32 -26 55 -75 64 -96 66 -150 17z
m136 -36 c4 -13 2 -24 -5 -26 -6 -2 -11 -8 -11 -13 0 -6 5 -7 12 -3 7 5 8 3 3
-6 -5 -7 -9 -26 -11 -43 -1 -16 -6 -33 -11 -38 -13 -13 -73 -20 -73 -8 0 6 -6
7 -12 3 -7 -4 -10 -4 -6 0 3 4 1 18 -6 31 -33 64 5 123 81 124 24 1 33 -4 39
-21z"/>
<path d="M4120 3010 c0 -5 5 -10 11 -10 5 0 7 5 4 10 -3 6 -8 10 -11 10 -2 0
-4 -4 -4 -10z"/>
<path d="M4167 2978 c-8 -30 9 -47 18 -18 4 12 3 26 -3 32 -6 6 -11 1 -15 -14z"/>
<path d="M4332 2940 c0 -14 2 -19 5 -12 2 6 2 18 0 25 -3 6 -5 1 -5 -13z"/>
<path d="M4234 2859 c-27 -30 -25 -79 4 -106 25 -25 43 -28 73 -13 30 17 26
86 -7 116 -31 29 -45 30 -70 3z m59 -12 c7 3 9 3 5 -2 -4 -4 -3 -16 2 -26 11
-20 3 -52 -11 -43 -5 3 -6 -2 -3 -11 5 -12 1 -14 -17 -12 -18 3 -25 13 -31 38
-4 20 -3 35 3 38 6 1 15 9 22 16 7 7 14 9 15 4 2 -5 9 -6 15 -2z"/>
<path d="M4276 2629 c-11 -10 -15 -19 -10 -19 6 0 15 5 22 12 10 10 16 8 30
-6 12 -14 14 -20 5 -23 -16 -6 -17 -33 -1 -33 6 0 9 3 5 6 -3 4 0 13 8 21 19
18 19 28 -1 47 -20 21 -34 19 -58 -5z"/>
<path d="M4289 2438 c-6 -28 -4 -38 8 -43 19 -7 20 -6 25 20 2 12 -3 21 -14
23 -10 2 -18 2 -19 0z m18 -30 c-3 -8 -6 -5 -6 6 -1 11 2 17 5 13 3 -3 4 -12
1 -19z"/>
<path d="M4266 2255 c4 -8 8 -15 10 -15 2 0 4 7 4 15 0 8 -4 15 -10 15 -5 0
-7 -7 -4 -15z"/>
<path d="M3911 2206 c-56 -20 -79 -91 -43 -136 13 -16 32 -24 69 -27 48 -5 51
-4 71 30 53 85 -4 164 -97 133z m12 -58 c-5 -39 -16 -57 -35 -58 -3 0 -4 10 0
22 3 14 2 19 -6 14 -18 -11 -14 3 9 35 28 40 38 36 32 -13z m77 -18 c0 -29
-29 -70 -50 -70 -10 0 -10 3 0 15 6 8 9 19 5 25 -4 6 -4 29 0 51 7 39 8 40 26
23 10 -9 19 -29 19 -44z"/>
<path d="M2039 3725 c0 -3 0 -35 -1 -72 0 -54 3 -69 15 -71 13 -3 14 2 8 25
-4 15 -5 39 -1 53 l6 25 17 -26 c10 -14 16 -32 14 -40 -2 -8 -2 -10 1 -6 2 4
13 -2 23 -14 25 -29 36 -17 41 46 3 28 8 58 12 68 6 13 4 17 -10 17 -17 0 -19
-7 -15 -52 l3 -53 -21 19 c-12 11 -21 26 -21 33 0 25 -68 70 -71 48z m90 -109
c-3 -3 -11 5 -18 17 -13 21 -12 21 5 5 10 -10 16 -20 13 -22z m18 -18 c-3 -8
-6 -5 -6 6 -1 11 2 17 5 13 3 -3 4 -12 1 -19z"/>
<path d="M1985 3670 c-3 -5 -1 -18 4 -27 9 -16 10 -14 11 10 0 28 -5 34 -15
17z"/>
<path d="M2197 3664 c-4 -4 -7 -14 -7 -23 0 -11 3 -12 11 -4 6 6 10 16 7 23
-2 6 -7 8 -11 4z"/>
<path d="M2367 3647 c-11 -29 -9 -43 4 -30 6 6 9 19 7 29 -3 18 -4 18 -11 1z"/>
<path d="M1800 3636 c0 -8 5 -18 10 -21 6 -3 10 3 10 14 0 12 -4 21 -10 21 -5
0 -10 -6 -10 -14z"/>
<path d="M2830 3451 c-7 -15 -7 -21 0 -21 12 0 25 28 17 36 -3 3 -10 -4 -17
-15z"/>
<path d="M2990 3351 c-13 -25 -13 -34 0 -26 16 10 32 45 21 45 -6 0 -15 -9
-21 -19z"/>
<path d="M1180 3353 c0 -12 5 -25 11 -28 19 -12 22 3 5 27 l-16 22 0 -21z"/>
<path d="M3413 3443 c-17 -11 -23 -25 -23 -53 0 -40 11 -54 49 -63 28 -7 81
39 81 70 -1 49 -64 76 -107 46z m64 -68 c-4 -8 -11 -15 -17 -15 -7 0 -7 6 0
21 13 23 26 19 17 -6z"/>
<path d="M693 3414 c-30 -30 -28 -70 7 -93 22 -15 24 -15 18 1 -8 18 9 42 35
51 32 12 33 -24 1 -49 -28 -23 -28 -23 -4 -17 33 9 49 31 50 71 0 26 -5 35
-27 44 -46 18 -54 18 -80 -8z"/>
<path d="M923 3218 c-42 -45 -31 -122 19 -133 39 -9 79 19 92 64 19 68 -64
119 -111 69z m57 -17 c0 -12 -20 -25 -27 -18 -7 7 6 27 18 27 5 0 9 -4 9 -9z
m37 -66 c-7 -16 -47 -36 -59 -28 -19 10 -6 42 20 51 31 11 48 1 39 -23z"/>
<path d="M3245 2529 c-11 -17 1 -21 15 -4 8 9 8 15 2 15 -6 0 -14 -5 -17 -11z"/>
<path d="M3854 3096 c4 -34 14 -44 22 -22 4 10 0 24 -9 33 -14 14 -15 13 -13
-11z"/>
<path d="M820 2953 c0 -12 8 -23 20 -26 11 -3 20 -2 20 2 0 5 -9 16 -20 26
-19 18 -20 17 -20 -2z"/>
<path d="M3580 2630 c0 -5 5 -10 11 -10 5 0 7 5 4 10 -3 6 -8 10 -11 10 -2 0
-4 -4 -4 -10z"/>
<path d="M3806 2465 c4 -8 11 -15 16 -15 6 0 5 6 -2 15 -7 8 -14 15 -16 15 -2
0 -1 -7 2 -15z"/>
<path d="M540 1780 c0 -5 5 -10 10 -10 6 0 10 5 10 10 0 6 -4 10 -10 10 -5 0
-10 -4 -10 -10z"/>
<path d="M3575 1910 c-4 -6 5 -10 20 -10 15 0 24 4 20 10 -3 6 -12 10 -20 10
-8 0 -17 -4 -20 -10z"/>
<path d="M1170 2130 c-35 -7 -35 -7 -5 -9 17 0 37 4 45 9 17 11 11 11 -40 0z"/>
<path d="M1290 2130 c8 -5 20 -10 25 -10 6 0 3 5 -5 10 -8 5 -19 10 -25 10 -5
0 -3 -5 5 -10z"/>
<path d="M1464 2125 c11 -8 25 -15 30 -15 6 0 2 7 -8 15 -11 8 -25 15 -30 15
-6 0 -2 -7 8 -15z"/>
<path d="M1545 2125 c-24 -11 -26 -14 -9 -15 11 0 29 7 40 15 24 18 9 18 -31
0z"/>
<path d="M1837 1983 c-4 -3 -7 -16 -6 -27 0 -19 1 -19 10 3 10 24 8 36 -4 24z"/>
<path d="M2455 1770 c3 -5 8 -10 11 -10 2 0 4 5 4 10 0 6 -5 10 -11 10 -5 0
-7 -4 -4 -10z"/>
<path d="M3160 1755 c0 -5 5 -17 10 -25 5 -8 10 -10 10 -5 0 6 -5 17 -10 25
-5 8 -10 11 -10 5z"/>
<path d="M3311 1305 c0 -14 28 -50 34 -43 3 3 -3 16 -14 29 -11 13 -20 20 -20
14z"/>
<path d="M2676 822 c-3 -6 -1 -14 5 -17 14 -9 20 -2 10 14 -6 8 -11 9 -15 3z"/>
<path d="M2780 821 c0 -6 4 -13 10 -16 6 -3 7 1 4 9 -7 18 -14 21 -14 7z"/>
<path d="M3140 1127 c-30 -10 -35 -17 -38 -48 -2 -28 3 -43 20 -61 13 -13 28
-23 33 -23 28 3 52 18 67 42 15 26 15 31 1 58 -15 28 -31 45 -43 44 -3 0 -21
-5 -40 -12z m60 -59 c0 -26 -17 -14 -22 17 -4 20 -3 23 8 14 8 -6 14 -20 14
-31z m-45 -8 c9 -16 11 -30 6 -30 -5 0 -13 10 -16 21 -6 17 -9 19 -16 8 -7
-11 -9 -11 -9 2 0 14 8 29 16 29 2 0 10 -13 19 -30z"/>
<path d="M3239 1033 c-13 -16 -12 -17 4 -4 16 13 21 21 13 21 -2 0 -10 -8 -17
-17z"/>
<path d="M3260 920 c-9 -6 -10 -10 -3 -10 6 0 15 5 18 10 8 12 4 12 -15 0z"/>
<path d="M3340 862 c-16 -19 -20 -37 -18 -73 2 -26 5 -47 8 -46 3 0 20 -3 38
-7 28 -7 36 -4 48 13 9 12 20 21 26 21 6 0 5 -7 -3 -17 -13 -15 -12 -15 8 -2
12 7 18 16 14 19 -5 3 -12 22 -16 42 -12 66 -71 94 -105 50z m80 -66 c0 -16
-3 -15 -20 7 -11 14 -20 28 -20 31 0 3 9 1 20 -6 11 -7 20 -21 20 -32z m-51 8
c4 3 12 -4 19 -14 6 -11 8 -22 3 -25 -13 -7 -41 23 -40 43 0 11 2 12 6 4 2 -6
8 -10 12 -8z"/>
<path d="M1986 825 c-9 -26 -7 -32 5 -12 6 10 9 21 6 23 -2 3 -7 -2 -11 -11z"/>
<path d="M2181 824 c0 -11 3 -14 6 -6 3 7 2 16 -1 19 -3 4 -6 -2 -5 -13z"/>
<path d="M2050 682 c-17 -13 -21 -24 -16 -40 10 -29 24 -28 19 1 -5 25 10 42
42 50 19 4 19 5 -1 6 -12 0 -32 -7 -44 -17z"/>
<path d="M2125 680 c3 -5 14 -10 23 -10 15 0 15 2 2 10 -20 13 -33 13 -25 0z"/>
<path d="M1756 653 c-6 -14 -5 -15 5 -6 7 7 10 15 7 18 -3 3 -9 -2 -12 -12z"/>
<path d="M2181 644 c0 -11 3 -14 6 -6 3 7 2 16 -1 19 -3 4 -6 -2 -5 -13z"/>
<path d="M2070 621 c0 -6 16 -11 36 -11 31 0 36 -3 31 -20 -6 -24 11 -27 20
-4 8 21 -5 31 -49 39 -25 5 -38 4 -38 -4z"/>
<path d="M2050 581 c0 -9 34 -21 60 -21 8 0 2 7 -14 15 -32 17 -46 19 -46 6z"/>
<path d="M3000 740 c0 -5 5 -10 11 -10 5 0 7 5 4 10 -3 6 -8 10 -11 10 -2 0
-4 -4 -4 -10z"/>
<path d="M3870 3961 c0 -5 5 -13 10 -16 6 -3 10 -2 10 4 0 5 -4 13 -10 16 -5
3 -10 2 -10 -4z"/>
<path d="M466 3322 c10 -18 20 -28 23 -21 2 6 -7 21 -19 33 l-23 21 19 -33z"/>
<path d="M4598 3043 c6 -2 18 -2 25 0 6 3 1 5 -13 5 -14 0 -19 -2 -12 -5z"/>
<path d="M4659 3021 c16 -30 6 -110 -17 -133 -16 -16 -15 -29 2 -22 36 14 51
139 19 165 -15 13 -15 12 -4 -10z"/>
<path d="M190 2899 c0 -5 5 -7 10 -4 6 3 10 8 10 11 0 2 -4 4 -10 4 -5 0 -10
-5 -10 -11z"/>
<path d="M4670 2846 c0 -3 14 -20 31 -37 25 -25 37 -29 58 -24 53 14 78 15
104 6 36 -14 35 -4 0 11 -32 12 -88 11 -114 -2 -9 -6 -19 -7 -21 -2 -5 12 -58
56 -58 48z"/>
<path d="M4854 2682 c-28 -44 -30 -49 -18 -79 8 -17 18 -34 24 -38 14 -9 12 3
-6 35 -16 26 -16 29 4 56 18 26 38 75 30 73 -2 0 -17 -21 -34 -47z"/>
<path d="M4950 2553 c-19 -3 -39 -9 -45 -14 -6 -6 9 -7 40 -3 45 7 50 5 72
-22 12 -16 23 -24 23 -18 0 14 -39 65 -48 62 -4 0 -23 -3 -42 -5z"/>
<path d="M4600 2501 c0 -6 4 -13 10 -16 6 -3 7 1 4 9 -7 18 -14 21 -14 7z"/>
<path d="M5021 2473 c-1 -6 -18 -29 -38 -50 -32 -31 -39 -46 -42 -87 -2 -33 0
-46 8 -42 7 5 11 -4 11 -23 0 -28 2 -30 28 -25 45 9 82 -11 82 -44 0 -39 -18
-60 -65 -76 -38 -13 -40 -16 -49 -70 -10 -69 -6 -82 34 -89 17 -4 29 -11 26
-16 -3 -5 4 -11 15 -14 15 -4 20 -11 15 -22 -3 -9 -6 -23 -6 -30 0 -17 -35
-31 -86 -34 -24 -1 -52 -49 -61 -105 -4 -26 -1 -37 14 -47 54 -39 63 -107 17
-128 -14 -6 -46 -11 -73 -11 -51 0 -75 -17 -104 -75 -14 -29 -9 -57 14 -75 4
-3 6 -26 5 -53 -1 -32 1 -42 7 -31 5 9 6 44 2 79 l-6 63 44 21 c42 20 97 25
97 8 0 -18 58 27 59 47 8 92 5 115 -21 151 -22 31 -24 41 -15 56 8 14 14 15
20 6 6 -8 7 -4 4 10 -4 19 1 23 36 30 48 10 81 48 81 96 0 34 -30 86 -51 87
-15 0 -42 55 -38 77 2 10 4 23 4 29 1 6 19 19 42 29 44 20 69 49 69 78 0 29
-49 67 -86 67 -32 0 -34 2 -34 34 0 19 -4 37 -8 40 -18 11 -3 59 27 90 18 19
31 40 28 48 -3 8 -6 9 -6 1z"/>
<path d="M4620 2456 c0 -2 8 -10 18 -17 15 -13 16 -12 3 4 -13 16 -21 21 -21
13z"/>
<path d="M4471 2364 c0 -11 3 -14 6 -6 3 7 2 16 -1 19 -3 4 -6 -2 -5 -13z"/>
<path d="M4246 1984 c-11 -30 -7 -42 14 -37 11 3 20 9 20 13 0 16 -12 40 -20
40 -4 0 -11 -7 -14 -16z"/>
<path d="M4678 1711 c-13 -22 -33 -46 -45 -52 -12 -7 -20 -16 -17 -21 3 -4 12
-1 20 7 8 8 21 18 28 22 14 9 48 74 42 80 -2 3 -15 -13 -28 -36z"/>
<path d="M4420 1666 c0 -2 7 -7 16 -10 8 -3 12 -2 9 4 -6 10 -25 14 -25 6z"/>
<path d="M4299 1600 c27 -32 59 -69 71 -82 12 -13 29 -33 37 -45 8 -13 18 -21
22 -18 4 2 15 -9 25 -26 9 -16 22 -29 27 -29 5 0 32 -20 58 -45 66 -62 191
-106 204 -72 4 10 -4 13 -29 12 -75 -5 -114 20 -255 159 -74 73 -145 147 -159
164 -13 17 -30 34 -37 37 -7 2 9 -22 36 -55z"/>
<path d="M4473 1643 c9 -2 23 -2 30 0 6 3 -1 5 -18 5 -16 0 -22 -2 -12 -5z"/>
<path d="M4568 1633 c6 -2 18 -2 25 0 6 3 1 5 -13 5 -14 0 -19 -2 -12 -5z"/>
<path d="M747 1504 c4 -10 0 -22 -10 -29 -11 -8 -13 -16 -6 -26 8 -12 10 -12
19 1 13 19 13 57 0 65 -6 4 -7 -1 -3 -11z"/>
<path d="M1637 1490 c-3 -11 -1 -23 4 -26 5 -3 9 6 9 20 0 31 -6 34 -13 6z"/>
<path d="M830 1290 c-8 -5 -10 -10 -5 -10 6 0 17 5 25 10 8 5 11 10 5 10 -5 0
-17 -5 -25 -10z"/>
<path d="M916 1174 c-10 -25 -1 -27 19 -4 15 17 16 20 3 20 -9 0 -19 -7 -22
-16z"/>
<path d="M984 1110 c-30 -12 -37 -57 -13 -81 22 -22 29 -23 63 -7 39 17 44 47
12 75 -30 25 -31 26 -62 13z m26 -26 c0 -1 -3 -9 -6 -18 -8 -22 -24 -20 -24 2
0 10 7 19 15 19 8 0 15 -1 15 -3z m30 -29 c0 -16 -27 -32 -37 -21 -7 7 16 36
28 36 5 0 9 -7 9 -15z"/>
<path d="M1264 1025 c6 -37 88 -110 86 -77 -1 4 -21 30 -46 57 -44 48 -45 49
-40 20z"/>
<path d="M724 953 c-41 -49 -63 -82 -64 -97 0 -5 12 9 26 30 14 21 40 54 57
71 17 18 28 35 26 38 -3 2 -23 -16 -45 -42z"/>
<path d="M1273 875 c-3 -9 -3 -18 -1 -21 3 -3 8 4 11 16 6 23 -1 27 -10 5z"/>
<path d="M1140 810 c0 -5 5 -10 11 -10 5 0 7 5 4 10 -3 6 -8 10 -11 10 -2 0
-4 -4 -4 -10z"/>
<path d="M1205 770 c3 -5 11 -10 16 -10 6 0 7 5 4 10 -3 6 -11 10 -16 10 -6 0
-7 -4 -4 -10z"/>
<path d="M645 750 c-3 -4 2 -10 10 -14 8 -3 15 -13 15 -23 0 -10 4 -24 9 -31
6 -10 10 -10 21 3 11 13 10 14 -6 8 -18 -7 -18 -6 -2 19 17 26 17 26 -12 37
-16 5 -32 6 -35 1z"/>
<path d="M720 719 c0 -5 5 -7 10 -4 6 3 10 8 10 11 0 2 -4 4 -10 4 -5 0 -10
-5 -10 -11z"/>
<path d="M775 650 c-4 -6 -1 -10 6 -10 7 0 21 -8 32 -17 19 -17 20 -17 9 3
-13 25 -39 38 -47 24z"/>
<path d="M940 531 c0 -5 5 -13 10 -16 6 -3 10 -2 10 4 0 5 -4 13 -10 16 -5 3
-10 2 -10 -4z"/>
<path d="M2933 344 c-9 -4 -9 -13 -1 -36 9 -27 8 -33 -8 -45 -19 -14 -19 -15
1 -11 17 3 20 11 20 51 1 26 1 47 0 46 0 0 -5 -3 -12 -5z"/>
<path d="M3075 340 c-3 -5 -1 -10 4 -10 6 0 11 5 11 10 0 6 -2 10 -4 10 -3 0
-8 -4 -11 -10z"/>
<path d="M1426 243 c-6 -14 -5 -15 5 -6 7 7 10 15 7 18 -3 3 -9 -2 -12 -12z"/>
<path d="M2811 230 c-1 -23 2 -31 9 -24 7 7 7 19 1 35 -9 23 -10 22 -10 -11z"/>
<path d="M2549 206 c-8 -18 -8 -32 0 -53 11 -27 11 -27 7 9 -3 25 0 43 10 53
9 8 11 15 4 15 -6 0 -15 -11 -21 -24z"/>
<path d="M1566 196 c-3 -14 -14 -27 -24 -29 -13 -4 -13 -5 4 -6 14 -1 24 6 27
19 3 13 14 20 29 20 18 0 20 2 8 10 -24 16 -37 12 -44 -14z"/>
<path d="M2617 199 c4 -13 8 -18 11 -10 2 7 -1 18 -6 23 -8 8 -9 4 -5 -13z"/>
<path d="M1710 174 c0 -14 3 -14 15 -4 8 7 15 14 15 16 0 2 -7 4 -15 4 -8 0
-15 -7 -15 -16z"/>
<path d="M1868 163 c-10 -2 -18 -8 -18 -13 0 -4 9 -6 20 -3 11 3 20 9 20 14 0
5 -1 8 -2 8 -2 -1 -11 -3 -20 -6z"/>
<path d="M2270 135 c0 -19 2 -35 4 -35 2 0 6 16 8 35 2 19 0 35 -4 35 -4 0 -8
-16 -8 -35z"/>
<path d="M1987 153 c-11 -10 -8 -63 3 -63 6 0 10 16 10 35 0 36 -2 40 -13 28z"/>
<path d="M1697 136 c-3 -8 1 -17 9 -20 8 -3 14 1 14 9 0 20 -17 28 -23 11z"/>
</g>
</svg>
