<svg aria-hidden="true" style="position: absolute; width: 0; height: 0; overflow: hidden;" version="1.1" xmlns="http://www.w3.org/2000/svg" xmlns:xlink="http://www.w3.org/1999/xlink">
<defs>
<symbol id="icon-mech6" viewBox="0 0 33 32">
<path fill="#fbfbfb" style="fill: var(--color1, #fbfbfb)" d="M-0.825 0c1.43 0 2.859 0 4.289 0-0.859 1.054-1.767 2.099-2.722 3.134-0.446 1.213-0.886 2.422-1.32 3.629-0.11 0.99-0.11 1.979 0 2.969 0.328 1.476 0.603 2.96 0.825 4.454 0.033 0.314 0.17 0.561 0.412 0.742-0.088 0.758-0.088 1.5 0 2.227 0.036 0.237 0.119 0.457 0.247 0.66 0.055-0.055 0.11-0.11 0.165-0.165 0.289 0.289 0.647 0.399 1.072 0.33 0.251 0.114 0.416 0.306 0.495 0.577-0.186 0.379-0.461 0.681-0.825 0.907 0.123 0.204 0.178 0.424 0.165 0.66 1.478-0.085 1.698 0.41 0.66 1.485 0.079 0.161 0.189 0.299 0.33 0.412 1.404-0.073 1.679 0.449 0.825 1.567 0.079 0.161 0.189 0.299 0.33 0.412 0.471-0.11 0.938-0.082 1.402 0.082-0.007 0.505-0.062 1-0.165 1.485 0.557 0.061 1.134 0.061 1.732 0 0.037 0.453-0.018 0.893-0.165 1.32 0.155 0.174 0.347 0.284 0.577 0.33 1.168-0.65 1.691-0.292 1.567 1.072 0.499-0.264 1.049-0.374 1.649-0.33 0.047 1.483 0.542 1.702 1.485 0.66 0.776-0.104 1.133 0.253 1.072 1.072 0.093 0.086 0.203 0.141 0.33 0.165 0.325-0.386 0.682-0.716 1.072-0.99 0.503 0.126 0.778 0.456 0.825 0.99 0.196 0.153 0.416 0.208 0.66 0.165 0.328-1.419 0.878-1.501 1.649-0.247 0.213 0.081 0.433 0.108 0.66 0.082-0.082-1.327 0.385-1.602 1.402-0.825 0.080 0.156 0.107 0.321 0.082 0.495 0.218 0.028 0.411-0.027 0.577-0.165 0.002-0.521 0.139-0.989 0.412-1.402 0.543-0.148 0.928 0.045 1.155 0.577 0.143 0.179 0.308 0.206 0.495 0.082 0.11-0.55 0.22-1.1 0.33-1.649 0.554-0.059 1.021 0.133 1.402 0.577 0.191-0.082 0.328-0.22 0.412-0.412-0.255-0.384-0.337-0.797-0.247-1.237 0.63-0.449 1.18-0.339 1.649 0.33 0.521-0.425 0.521-0.864 0-1.32-0.205-0.562-0.012-0.837 0.577-0.825 0.361 0.015 0.691 0.126 0.99 0.33 0.222-0.14 0.387-0.332 0.495-0.577-0.038-0.066-0.093-0.093-0.165-0.082 0.199-0.228 0.144-0.42-0.165-0.577 0.055-0.055 0.11-0.11 0.165-0.165-0.273-0.12-0.356-0.312-0.247-0.577 0.326 0.039 0.601 0.259 0.825 0.66 0.080-0.156 0.107-0.321 0.082-0.495 0.275 0 0.55 0 0.825 0 0.005-0.809 0.39-1.029 1.155-0.66 0.141-0.204 0.251-0.424 0.33-0.66-0.43-0.135-0.87-0.217-1.32-0.247 0.621 0.019 1.143-0.174 1.567-0.577 0.213-0.591 0.378-1.196 0.495-1.814 0.44-0.748 0.797-1.518 1.072-2.309 0 5.223 0 10.447 0 15.67-11.216 0-22.433 0-33.65 0 0-10.667 0-21.333 0-32z"></path>
<path fill="#fbfbfb" style="fill: var(--color1, #fbfbfb)" d="M4.292 0c9.787 0 19.574 0 29.361 0 0 5.443 0 10.887 0 16.33-0.275 0.792-0.632 1.561-1.072 2.309-0.117 0.618-0.282 1.223-0.495 1.814-0.424 0.404-0.946 0.596-1.567 0.577 0.45 0.030 0.89 0.113 1.32 0.247-0.079 0.236-0.189 0.456-0.33 0.66-0.764-0.369-1.149-0.15-1.155 0.66-0.275 0-0.55 0-0.825 0 0.025 0.174-0.003 0.338-0.082 0.495-0.224-0.401-0.498-0.621-0.825-0.66-0.109 0.265-0.026 0.458 0.247 0.577-0.055 0.055-0.11 0.11-0.165 0.165 0.309 0.157 0.364 0.35 0.165 0.577-0.507-0.3-0.7-0.74-0.577-1.32 0.458-0.195 0.925-0.195 1.402 0 0.275-0.055 0.44-0.22 0.495-0.495-0.311-0.254-0.614-0.529-0.907-0.825-0.11-0.22-0.11-0.44 0-0.66 0.56-0.158 1.137-0.213 1.732-0.165 0.043-0.244-0.012-0.464-0.165-0.66-0.851-0.31-1.016-0.805-0.495-1.485 0.44 0 0.88 0 1.32 0 0-0.33 0-0.66 0-0.99-0.22 0-0.44 0-0.66 0-0.714-0.244-0.824-0.657-0.33-1.237 0.381-0.082 0.766-0.109 1.155-0.082 0-0.275 0-0.55 0-0.825-0.766 0.179-1.261-0.096-1.485-0.825 0.229-0.575 0.668-0.85 1.32-0.825 0-0.22 0-0.44 0-0.66-0.578 0.084-1.101-0.026-1.567-0.33-0.11-0.22-0.11-0.44 0-0.66 0.347-0.323 0.705-0.626 1.072-0.907-0.024-0.127-0.079-0.237-0.165-0.33-0.301-0.048-0.604-0.021-0.907 0.082-0.702-0.121-0.894-0.506-0.577-1.155 0.275-0.22 0.55-0.44 0.825-0.66-0.055-0.275-0.22-0.44-0.495-0.495-0.477 0.195-0.944 0.195-1.402 0-0.168-0.689 0.079-1.183 0.742-1.485-0.17-0.198-0.308-0.418-0.412-0.66-0.438 0.444-0.96 0.582-1.567 0.412-0.273-0.666-0.108-1.216 0.495-1.649-0.141-0.169-0.306-0.306-0.495-0.412-0.395 0.473-0.89 0.666-1.485 0.577-0.215-0.133-0.325-0.325-0.33-0.577 0.119-0.403 0.284-0.788 0.495-1.155-0.461-0.435-0.846-0.352-1.155 0.247-0.679 0.424-1.064 0.231-1.155-0.577 0.064-0.293 0.174-0.568 0.33-0.825-0.14-0.222-0.332-0.387-0.577-0.495-0.213 0.288-0.405 0.591-0.577 0.907-0.73 0.428-1.115 0.208-1.155-0.66 0.073-0.301 0.128-0.603 0.165-0.907-0.236 0.013-0.456-0.042-0.66-0.165-0.141 0.564-0.471 0.949-0.99 1.155-0.252-0.005-0.445-0.115-0.577-0.33-0.082-0.381-0.109-0.766-0.082-1.155-0.234-0.157-0.509-0.212-0.825-0.165 0 0.165 0 0.33 0 0.495-0.025 0.658-0.355 0.905-0.99 0.742-0.371-0.329-0.536-0.741-0.495-1.237-0.234-0.157-0.509-0.212-0.825-0.165 0 0.275 0 0.55 0 0.825-0.244 0.714-0.657 0.824-1.237 0.33-0.021-0.597-0.324-0.872-0.907-0.825 0.026 0.502-0.084 0.97-0.33 1.402-0.22 0.11-0.44 0.11-0.66 0-0.287-0.336-0.589-0.638-0.907-0.907-0.127 0.024-0.237 0.079-0.33 0.165 0.005 1.71-0.572 1.93-1.732 0.66-0.11 0.055-0.22 0.11-0.33 0.165 0.005 0.518-0.050 1.040-0.165 1.567-0.569 0.183-1.008 0.018-1.32-0.495-0.574 0.022-0.712 0.27-0.412 0.742 0.11 0.33 0.11 0.66 0 0.99-0.633 0.137-1.238 0.137-1.814 0 0.071 0.37 0.153 0.755 0.247 1.155-0.055 0.165-0.11 0.33-0.165 0.495-0.506 0.044-1.001 0.044-1.485 0-0.055 0.11-0.11 0.22-0.165 0.33 0.99 1.206 0.66 1.756-0.99 1.65-0.169 0.421-0.032 0.751 0.412 0.99 0.11 0.22 0.11 0.44 0 0.66-0.423 0.277-0.89 0.387-1.402 0.33-0.043 0.244 0.012 0.464 0.165 0.66 0.605 0.256 0.77 0.668 0.495 1.237-0.359 0.198-0.744 0.281-1.155 0.247 0 0.275 0 0.55 0 0.825 0.911 0.091 1.131 0.503 0.66 1.237-0.723 0-0.998 0.358-0.825 1.072 1.165-0.024 1.385 0.388 0.66 1.237-0.156 0.080-0.321 0.107-0.495 0.082 0 0.275 0 0.55 0 0.825 0.316-0.047 0.591 0.008 0.825 0.165-0.425 0.069-0.783-0.041-1.072-0.33-0.055 0.055-0.11 0.11-0.165 0.165-0.129-0.203-0.211-0.423-0.247-0.66-0.088-0.727-0.088-1.469 0-2.227-0.242-0.181-0.38-0.428-0.412-0.742-0.221-1.493-0.496-2.978-0.825-4.454-0.11-0.99-0.11-1.979 0-2.969 0.434-1.206 0.873-2.416 1.32-3.629 0.955-1.035 1.862-2.080 2.722-3.134z"></path>
<path fill="#0a0a0a" style="fill: var(--color2, #0a0a0a)" d="M17.158 0.33c-0.041 0.496 0.124 0.908 0.495 1.237 0.635 0.163 0.965-0.085 0.99-0.742 0.211-0.242 0.486-0.352 0.825-0.33-0.027 0.389 0 0.774 0.082 1.155 0.133 0.215 0.325 0.325 0.577 0.33 0.518-0.205 0.848-0.59 0.99-1.155 0.204 0.123 0.424 0.178 0.66 0.165-0.037 0.304-0.092 0.606-0.165 0.907 0.040 0.868 0.425 1.088 1.155 0.66 0.172-0.316 0.364-0.619 0.577-0.907 0.245 0.108 0.438 0.273 0.577 0.495-0.156 0.257-0.266 0.532-0.33 0.825 0.091 0.808 0.476 1.001 1.155 0.577 0.309-0.6 0.694-0.682 1.155-0.247-0.211 0.367-0.376 0.751-0.495 1.155 0.005 0.252 0.115 0.445 0.33 0.577 0.595 0.088 1.090-0.104 1.485-0.577 0.189 0.106 0.354 0.244 0.495 0.412-0.603 0.433-0.767 0.983-0.495 1.649 0.607 0.169 1.129 0.032 1.567-0.412 0.105 0.242 0.242 0.462 0.412 0.66-0.663 0.301-0.91 0.796-0.742 1.485 0.458 0.195 0.925 0.195 1.402 0 0.275 0.055 0.44 0.22 0.495 0.495-0.275 0.22-0.55 0.44-0.825 0.66-0.317 0.649-0.124 1.034 0.577 1.155 0.304-0.103 0.606-0.131 0.907-0.082 0.086 0.093 0.141 0.203 0.165 0.33-0.367 0.281-0.725 0.584-1.072 0.907-0.11 0.22-0.11 0.44 0 0.66 0.466 0.303 0.989 0.413 1.567 0.33 0 0.22 0 0.44 0 0.66-0.651-0.025-1.091 0.25-1.32 0.825 0.224 0.729 0.718 1.004 1.485 0.825 0 0.275 0 0.55 0 0.825-0.389-0.027-0.774 0.001-1.155 0.082-0.494 0.58-0.384 0.993 0.33 1.237 0.117 0.149 0.282 0.204 0.495 0.165 0 0.22 0 0.44 0 0.66-0.422-0.050-0.807 0.005-1.155 0.165-0.521 0.68-0.356 1.174 0.495 1.485 0.153 0.196 0.208 0.416 0.165 0.66-0.595-0.048-1.172 0.007-1.732 0.165-0.11 0.22-0.11 0.44 0 0.66 0.294 0.296 0.596 0.571 0.907 0.825-0.055 0.275-0.22 0.44-0.495 0.495-0.477-0.195-0.944-0.195-1.402 0-0.122 0.58 0.070 1.020 0.577 1.32 0.072-0.011 0.127 0.017 0.165 0.082-0.108 0.245-0.273 0.438-0.495 0.577-0.299-0.204-0.629-0.314-0.99-0.33-0.589-0.012-0.782 0.263-0.577 0.825 0.521 0.455 0.521 0.895 0 1.32-0.47-0.669-1.020-0.779-1.649-0.33-0.090 0.44-0.007 0.853 0.247 1.237-0.084 0.193-0.221 0.33-0.412 0.412-0.381-0.444-0.849-0.636-1.402-0.577-0.11 0.55-0.22 1.1-0.33 1.649-0.187 0.124-0.352 0.096-0.495-0.082-0.227-0.533-0.612-0.725-1.155-0.577-0.273 0.414-0.411 0.881-0.412 1.402-0.167 0.138-0.359 0.193-0.577 0.165 0.025-0.174-0.003-0.338-0.082-0.495-1.017-0.777-1.484-0.502-1.402 0.825-0.226 0.026-0.447-0.002-0.66-0.082-0.771-1.254-1.321-1.171-1.649 0.247-0.244 0.043-0.464-0.012-0.66-0.165-0.046-0.533-0.321-0.863-0.825-0.99-0.39 0.274-0.747 0.604-1.072 0.99-0.127-0.024-0.237-0.079-0.33-0.165 0.061-0.819-0.296-1.177-1.072-1.072-0.943 1.043-1.438 0.823-1.485-0.66-0.601-0.044-1.151 0.066-1.649 0.33 0.123-1.364-0.399-1.722-1.567-1.072-0.23-0.046-0.423-0.156-0.577-0.33 0.147-0.426 0.202-0.866 0.165-1.32-0.597 0.061-1.175 0.061-1.732 0 0.103-0.484 0.158-0.979 0.165-1.485-0.464-0.165-0.931-0.192-1.402-0.082-0.141-0.114-0.251-0.251-0.33-0.412 0.855-1.118 0.58-1.64-0.825-1.567-0.141-0.114-0.251-0.251-0.33-0.412 1.038-1.075 0.818-1.57-0.66-1.485 0.013-0.236-0.042-0.456-0.165-0.66 0.364-0.226 0.639-0.529 0.825-0.907-0.079-0.271-0.244-0.463-0.495-0.577-0.234-0.157-0.509-0.212-0.825-0.165 0-0.275 0-0.55 0-0.825 0.174 0.025 0.338-0.003 0.495-0.082 0.725-0.849 0.505-1.262-0.66-1.237-0.173-0.714 0.102-1.072 0.825-1.072 0.471-0.734 0.251-1.146-0.66-1.237 0-0.275 0-0.55 0-0.825 0.411 0.033 0.795-0.049 1.155-0.247 0.275-0.569 0.11-0.982-0.495-1.237-0.153-0.196-0.208-0.416-0.165-0.66 0.512 0.057 0.979-0.053 1.402-0.33 0.11-0.22 0.11-0.44 0-0.66-0.444-0.238-0.582-0.568-0.412-0.99 1.649 0.107 1.979-0.443 0.99-1.649 0.055-0.11 0.11-0.22 0.165-0.33 0.484 0.044 0.979 0.044 1.485 0 0.055-0.165 0.11-0.33 0.165-0.495-0.094-0.399-0.177-0.784-0.247-1.155 0.576 0.137 1.181 0.137 1.814 0 0.11-0.33 0.11-0.66 0-0.99-0.3-0.473-0.162-0.72 0.412-0.742 0.311 0.513 0.751 0.678 1.32 0.495 0.115-0.527 0.17-1.049 0.165-1.567 0.11-0.055 0.22-0.11 0.33-0.165 1.16 1.271 1.737 1.051 1.732-0.66 0.093-0.086 0.203-0.141 0.33-0.165 0.318 0.269 0.62 0.572 0.907 0.907 0.22 0.11 0.44 0.11 0.66 0 0.246-0.432 0.356-0.9 0.33-1.402 0.584-0.047 0.886 0.228 0.907 0.825 0.58 0.494 0.993 0.384 1.237-0.33 0.154-0.176 0.209-0.396 0.165-0.66 0.22 0 0.44 0 0.66 0z"></path>
<path fill="#747474" style="fill: var(--color3, #747474)" d="M19.467 0.495c-0.339-0.022-0.614 0.088-0.825 0.33 0-0.165 0-0.33 0-0.495 0.316-0.047 0.591 0.008 0.825 0.165z"></path>
<path fill="#6e6e6e" style="fill: var(--color4, #6e6e6e)" d="M17.158 0.33c-0.22 0-0.44 0-0.66 0 0.044 0.264-0.011 0.484-0.165 0.66 0-0.275 0-0.55 0-0.825 0.316-0.047 0.591 0.008 0.825 0.165z"></path>
<path fill="#fbfbfb" style="fill: var(--color1, #fbfbfb)" d="M15.014 3.299c1.951-0.099 3.875 0.066 5.773 0.495-0.433 1.085-0.955 2.13-1.567 3.134-0.11 0.275-0.11 0.55 0 0.825 0.788 0.71 1.695 1.123 2.722 1.237 0.687-1.127 1.375-2.254 2.062-3.381 2.476 1.819 3.988 4.238 4.536 7.258-1.264 0.079-2.529 0.161-3.794 0.247-0.21 0.449-0.32 0.944-0.33 1.485 0.028 0.467 0.055 0.935 0.082 1.402 0.082 0.082 0.165 0.165 0.247 0.247 1.318 0.082 2.638 0.11 3.959 0.082-0.302 3.079-1.594 5.663-3.876 7.753-0.681-1.115-1.424-2.187-2.227-3.216-0.22-0.11-0.44-0.11-0.66 0-0.866 0.373-1.581 0.923-2.144 1.649 0.638 1.138 1.298 2.265 1.979 3.381-2.122 1.092-4.376 1.449-6.763 1.072-0.554-0.127-1.104-0.265-1.649-0.412-0.179-0.143-0.206-0.308-0.082-0.495 0.63-1.013 1.153-2.086 1.567-3.216-0.014-0.183-0.069-0.348-0.165-0.495-0.827-0.526-1.707-0.856-2.639-0.99-0.712 1.011-1.316 2.083-1.814 3.216-0.278 0.176-0.553 0.149-0.825-0.082-2.25-1.889-3.625-4.28-4.124-7.175 1.321 0.027 2.64 0 3.959-0.082 0.082-0.082 0.165-0.165 0.247-0.247 0.11-0.88 0.11-1.759 0-2.639-0.062-0.151-0.144-0.289-0.247-0.412-1.373-0.082-2.748-0.11-4.124-0.082 0.279-3.005 1.544-5.506 3.794-7.505 0.247-0.084 0.439-0.001 0.577 0.247 0.571 1.005 1.203 1.967 1.897 2.887 0.22 0.11 0.44 0.11 0.66 0 0.702-0.447 1.389-0.914 2.062-1.402 0.086-0.295 0.031-0.57-0.165-0.825-0.646-0.921-1.223-1.883-1.732-2.887 0.322-0.311 0.707-0.531 1.155-0.66 0.584-0.088 1.133-0.226 1.649-0.412z"></path>
<path fill="#dfdfdf" style="fill: var(--color5, #dfdfdf)" d="M11.55 6.928c0.852-0.166 1.127 0.136 0.825 0.907-0.27 0.081-0.544 0.109-0.825 0.082 0-0.33 0-0.66 0-0.99z"></path>
<path fill="#d1d1d1" style="fill: var(--color6, #d1d1d1)" d="M20.787 6.433c0.91-0.004 1.13 0.353 0.66 1.072-0.777 0.014-0.997-0.344-0.66-1.072z"></path>
<path fill="#dcdcdc" style="fill: var(--color7, #dcdcdc)" d="M25.9 14.186c0.768-0.080 0.988 0.222 0.66 0.907-0.985 0.191-1.205-0.111-0.66-0.907z"></path>
<path fill="#dbdbdb" style="fill: var(--color8, #dbdbdb)" d="M7.591 15.010c0.824 0.082 0.989 0.439 0.495 1.072-0.844-0.029-1.009-0.386-0.495-1.072z"></path>
<path fill="#919191" style="fill: var(--color9, #919191)" d="M31.014 17.155c0.22 0 0.44 0 0.66 0 0 0.33 0 0.66 0 0.99-0.44 0-0.88 0-1.32 0 0.348-0.16 0.733-0.215 1.155-0.165 0-0.22 0-0.44 0-0.66-0.213 0.039-0.378-0.016-0.495-0.165z"></path>
<path fill="#dedede" style="fill: var(--color10, #dedede)" d="M21.777 22.268c0.655 0.095 0.82 0.452 0.495 1.072-0.883 0.029-1.048-0.328-0.495-1.072z"></path>
<path fill="#dadada" style="fill: var(--color11, #dadada)" d="M12.539 22.763c0.824 0.082 0.989 0.439 0.495 1.072-0.844-0.029-1.009-0.386-0.495-1.072z"></path>
</symbol>
<symbol id="icon-mech3" viewBox="0 0 32 32">
<path d="M15.404 2.874c-0.26 0.208-0.39 0.494-0.286 0.65 0.182 0.312-0.702 1.353-1.171 1.353-0.13 0-0.442-0.416-0.65-0.937-0.286-0.65-0.52-0.885-0.78-0.78-0.234 0.078-0.52 0.156-0.676 0.156s-0.208 0.338-0.13 0.885c0.234 1.379-0.989 2.055-1.691 0.937-0.39-0.624-1.067-0.676-1.509-0.13-0.286 0.338-0.286 0.52 0 1.041 0.624 1.171-0.364 2.133-1.327 1.275-0.39-0.364-0.624-0.416-0.963-0.208-0.65 0.416-0.676 1.041-0.052 1.665 0.416 0.416 0.468 0.624 0.26 1.041-0.234 0.416-0.52 0.52-1.379 0.468-0.989-0.078-1.093-0.026-1.171 0.598-0.052 0.494 0.078 0.728 0.598 0.963 0.494 0.234 0.65 0.494 0.65 1.093 0 0.754-0.026 0.78-1.093 0.728-1.093-0.078-1.119-0.052-1.119 0.702 0 0.65 0.13 0.806 0.78 0.911 1.249 0.208 1.093 1.821-0.182 1.821-0.26 0-0.546 0.182-0.65 0.416-0.234 0.624 0.286 1.275 0.963 1.197 1.275-0.13 1.795 1.301 0.65 1.821-0.702 0.312-0.859 1.067-0.312 1.431 0.156 0.104 0.78 0.208 1.353 0.208 1.275 0 1.509 0.65 0.624 1.587l-0.598 0.624 0.572 0.572c0.52 0.52 0.572 0.546 1.041 0.13 0.676-0.624 1.535-0.572 1.743 0.104 0.104 0.312 0.052 0.676-0.104 0.833-0.52 0.52-0.312 1.197 0.39 1.379 0.494 0.13 0.754 0.026 1.067-0.39 0.234-0.364 0.598-0.546 0.937-0.494 0.468 0.052 0.598 0.286 0.65 1.119 0.13 1.587 1.171 2.003 1.665 0.624 0.208-0.65 0.39-0.78 0.963-0.702 0.494 0.052 0.702 0.234 0.754 0.728 0.182 1.405 1.873 1.535 1.873 0.13 0-0.338 0.208-0.728 0.442-0.885 0.598-0.312 1.379 0.104 1.379 0.728s0.468 0.806 1.249 0.52c0.52-0.208 0.572-0.338 0.442-1.119-0.156-0.728-0.078-0.937 0.364-1.197 0.468-0.234 0.65-0.182 1.171 0.39 0.546 0.572 0.728 0.65 1.171 0.39 0.624-0.312 0.65-0.52 0.234-1.431-0.26-0.546-0.234-0.754 0.156-1.119 0.416-0.416 0.468-0.416 1.249 0.026 0.806 0.468 0.833 0.468 1.353-0.052l0.52-0.546-0.598-0.624c-0.911-0.963-0.65-1.587 0.702-1.587 0.833 0 1.197-0.13 1.405-0.494 0.234-0.416 0.156-0.624-0.572-1.197-1.171-0.963-1.015-1.691 0.39-1.691 0.989 0 1.041-0.052 1.041-0.78 0-0.598-0.13-0.78-0.624-0.911-1.353-0.312-1.301-1.665 0.052-1.873 0.442-0.052 0.572-0.26 0.572-0.859 0-0.702-0.078-0.78-0.78-0.78-0.442-0.026-0.937-0.104-1.119-0.208-0.546-0.364-0.364-1.223 0.338-1.535 0.52-0.234 0.65-0.468 0.598-0.963-0.078-0.598-0.182-0.676-1.093-0.624-1.587 0.104-2.159-0.572-1.197-1.405 0.286-0.26 0.52-0.572 0.52-0.754 0-0.156-0.234-0.494-0.52-0.754-0.494-0.442-0.546-0.442-0.989-0.052-1.067 0.963-2.133 0.13-1.457-1.145 0.26-0.546 0.286-0.754 0.026-0.937-0.754-0.598-0.963-0.572-1.587 0.104-0.911 0.963-1.613 0.598-1.509-0.806 0.052-0.806 0-0.937-0.598-1.093-0.754-0.182-1.067 0.026-1.223 0.806-0.052 0.39-0.286 0.52-0.859 0.52-0.676 0-0.78-0.104-0.859-0.78-0.13-1.119-0.65-1.405-1.483-0.833zM14.624 12.943c0 0.754-0.833 1.067-1.067 0.416-0.234-0.624 0.104-1.249 0.598-1.145 0.312 0.052 0.468 0.312 0.468 0.728zM19.905 14.139c0.104 0.702-0.676 1.041-1.197 0.52-0.546-0.52-0.208-1.249 0.52-1.145 0.364 0.052 0.624 0.286 0.676 0.624zM17.485 14.634c1.171 1.145 0.65 3.044-0.911 3.382-1.379 0.312-2.81-1.067-2.498-2.367 0.416-1.639 2.263-2.185 3.408-1.015zM13.635 17.782c0.078 0.208-0.052 0.598-0.286 0.833-0.39 0.39-0.442 0.39-0.833 0-0.546-0.546-0.286-1.249 0.416-1.249 0.286 0 0.598 0.182 0.702 0.416zM18.24 18.562c0.234 0.078 0.416 0.442 0.416 0.78 0 0.494-0.13 0.624-0.65 0.624s-0.65-0.13-0.65-0.598c0-0.885 0.208-1.067 0.885-0.806z"></path>
</symbol>
<symbol id="icon-mech4" viewBox="0 0 32 32">
<path d="M13.882 5.242c-0.188 0.78-0.484 0.861-0.968 0.269s-0.807-0.484-0.807 0.269c0 0.672-0.376 0.887-0.672 0.403-0.242-0.403-1.022-0.323-0.861 0.081 0.081 0.215 0.027 0.538-0.108 0.753-0.161 0.296-0.296 0.296-0.565 0.027-0.511-0.511-0.753-0.376-0.753 0.376 0 0.619-0.081 0.672-0.672 0.538-0.645-0.161-0.699-0.108-0.619 0.565 0.054 0.592-0.027 0.753-0.457 0.78-0.968 0.054-1.049 0.108-0.726 0.43 0.538 0.538 0.376 1.022-0.35 1.022s-0.861 0.242-0.376 0.726c0.35 0.35 0.108 0.887-0.457 0.887-0.457 0-0.484 0.323-0.027 0.78 0.269 0.269 0.188 0.43-0.35 0.834-0.592 0.457-0.619 0.538-0.188 0.672 0.592 0.242 0.592 0.645 0 1.103-0.457 0.323-0.457 0.376 0.054 0.726 0.511 0.403 0.511 0.43 0.054 0.941-0.484 0.538-0.484 0.538 0.054 0.726 0.619 0.188 0.726 0.538 0.296 0.807-0.484 0.296-0.296 0.941 0.269 0.941s0.753 0.699 0.215 0.86c-0.457 0.161 0 0.753 0.619 0.753 0.43 0 0.484 0.134 0.35 0.645-0.134 0.538-0.054 0.672 0.484 0.753 0.484 0.054 0.592 0.215 0.538 0.699-0.081 0.538 0 0.619 0.538 0.538 0.457-0.054 0.645 0.054 0.699 0.538 0.081 0.484 0.215 0.565 0.753 0.43 0.511-0.134 0.645-0.054 0.645 0.35 0 0.699 0.269 0.941 0.699 0.592s0.914-0.108 0.914 0.457c0 0.457 0.323 0.484 0.78 0.054 0.269-0.296 0.43-0.242 0.753 0.269 0.403 0.565 0.457 0.592 0.941 0.161 0.457-0.43 0.511-0.43 0.887 0.054 0.376 0.511 0.376 0.511 0.78-0.027 0.43-0.511 0.43-0.511 0.807-0.027 0.43 0.511 0.968 0.376 0.968-0.269 0-0.484 0.376-0.484 0.807 0.027 0.457 0.565 0.807 0.511 0.807-0.108s0.43-0.968 0.672-0.565c0.269 0.457 0.941 0.296 0.941-0.215 0-0.699 0.296-0.914 0.699-0.565 0.511 0.403 0.887 0.081 0.726-0.592-0.134-0.511-0.081-0.565 0.511-0.43 0.807 0.215 1.129-0.027 0.726-0.511-0.43-0.511-0.027-0.941 0.726-0.753 0.645 0.161 0.914-0.242 0.376-0.565-0.511-0.323-0.296-0.968 0.35-0.941 1.022 0.081 1.103 0.027 0.619-0.511-0.565-0.619-0.376-1.103 0.403-1.103 0.619 0 0.645-0.242 0.054-0.672-0.511-0.376-0.242-0.941 0.484-0.941 0.672 0 0.645-0.215-0.081-0.807l-0.592-0.457 0.592-0.323c0.726-0.403 0.753-0.726 0.054-0.914s-0.699-0.726 0-0.914c0.645-0.188 0.592-0.672-0.108-0.78-0.78-0.108-0.86-0.403-0.242-0.914 0.672-0.538 0.538-0.807-0.376-0.807-0.699 0-0.807-0.323-0.215-0.807 0.565-0.457 0.511-0.887-0.108-0.726-0.269 0.054-0.672 0.027-0.861-0.108-0.296-0.161-0.242-0.323 0.134-0.753 0.538-0.592 0.457-0.672-0.592-0.565-0.592 0.054-0.619-0.027-0.457-0.78 0.188-0.861-0.054-1.076-0.592-0.538-0.457 0.457-0.914 0.027-0.726-0.726 0.161-0.672-0.108-0.861-0.619-0.35-0.376 0.376-0.914 0.054-0.861-0.511 0.081-0.861-0.027-0.941-0.538-0.484-0.619 0.565-1.21 0.323-1.022-0.403 0.161-0.619-0.296-0.672-0.753-0.054-0.376 0.511-0.941 0.242-0.941-0.484 0-0.672-0.457-0.672-0.672 0.027-0.081 0.296-0.323 0.538-0.538 0.538-0.188 0-0.403-0.242-0.484-0.538s-0.269-0.538-0.403-0.538c-0.134 0-0.323 0.242-0.403 0.538s-0.269 0.538-0.457 0.538c-0.188 0-0.376-0.242-0.457-0.538-0.188-0.726-0.538-0.672-0.726 0.134zM13.855 7.232c-0.081 0.269-0.027 0.807 0.108 1.21 0.269 0.645 0.215 0.726-0.672 1.103-0.538 0.215-1.318 0.699-1.775 1.076l-0.807 0.672-0.672-0.538c-0.376-0.296-0.887-0.538-1.103-0.538-0.78 0 1.371-1.909 3.039-2.716 1.909-0.914 2.097-0.941 1.882-0.269zM20.309 7.528c0.592 0.296 1.452 0.86 1.882 1.237 0.753 0.619 0.78 0.672 0.296 0.941-0.269 0.161-0.672 0.511-0.887 0.78-0.376 0.43-0.484 0.403-1.909-0.43-0.834-0.511-1.721-0.914-1.99-0.914-0.43 0-0.457-0.081-0.215-0.565 0.188-0.296 0.242-0.861 0.134-1.237-0.161-0.645-0.108-0.672 0.726-0.511 0.484 0.081 1.371 0.403 1.963 0.699zM16.141 7.662c0 0.215-0.188 0.403-0.403 0.403s-0.403-0.188-0.403-0.403c0-0.215 0.188-0.403 0.403-0.403s0.403 0.188 0.403 0.403zM18.158 10.862c0.511 0.215 0.941 0.538 0.941 0.699 0 0.457-1.802 1.103-3.2 1.129-1.371 0.027-3.254-0.484-3.254-0.887 0-0.457 2.232-1.318 3.442-1.318 0.619 0 1.56 0.188 2.071 0.376zM23.563 11.319c0.269 0.457-0.35 0.968-0.726 0.592-0.323-0.323-0.108-0.887 0.296-0.887 0.134 0 0.323 0.134 0.43 0.296zM8.961 12.395c-0.457 0.457-0.995 0.027-0.592-0.457 0.215-0.269 0.403-0.323 0.619-0.108 0.188 0.188 0.188 0.35-0.027 0.565zM25.472 14.896c0.081 0.807 0.054 2.017-0.027 2.716-0.188 1.237-0.215 1.237-0.834 0.834-0.376-0.242-0.861-0.43-1.129-0.43-0.43 0-0.484-0.269-0.484-2.286-0.027-1.909 0.054-2.286 0.403-2.286 0.242 0 0.672-0.161 0.968-0.376 0.672-0.511 0.914-0.134 1.103 1.829zM8.37 13.901c0.672 0.134 0.726 0.215 0.672 1.64 0 0.86 0.054 1.855 0.188 2.259 0.161 0.619 0.108 0.753-0.296 0.753-0.269 0-0.726 0.188-1.022 0.403-0.269 0.215-0.592 0.403-0.699 0.403-0.376 0-0.78-2.985-0.592-4.464 0.134-1.237 0.242-1.452 0.619-1.291 0.242 0.108 0.753 0.242 1.129 0.296zM17.27 14.707c0.995 1.183 0.726 2.501-0.645 3.066-0.672 0.269-0.887 0.242-1.506-0.215-0.995-0.753-1.156-2.259-0.269-2.877 0.807-0.565 1.909-0.538 2.42 0.027zM21.008 18.499c-0.538 1.022-1.963 2.474-2.474 2.474-0.134 0-0.242-0.323-0.242-0.753 0-1.506 0.592-2.77 1.829-4.034l1.264-1.264 0.081 1.264c0.054 0.861-0.081 1.587-0.457 2.313zM12.376 16.886c0.699 0.726 1.371 1.721 1.56 2.366 0.376 1.291 0.403 1.99 0.108 1.99-0.645 0-2.474-1.694-2.985-2.743-0.619-1.291-0.753-2.904-0.242-2.904 0.161 0 0.861 0.565 1.56 1.291zM23.832 19.655c0.269 0.457-0.35 0.968-0.726 0.592-0.323-0.323-0.108-0.887 0.296-0.887 0.134 0 0.323 0.134 0.43 0.296zM9.418 20.597c0 0.215-0.188 0.376-0.403 0.376-0.403 0-0.565-0.565-0.242-0.887 0.269-0.242 0.645 0.054 0.645 0.511zM22.057 21.242c0.296 0.296 0.726 0.538 0.941 0.538 0.645 0 0.457 0.43-0.592 1.345-0.941 0.834-3.388 2.151-4.007 2.151-0.161 0-0.242-0.269-0.188-0.645 0.081-0.35 0.027-0.861-0.134-1.129-0.215-0.403-0.081-0.565 0.995-1.049 0.672-0.323 1.479-0.861 1.748-1.183 0.619-0.699 0.565-0.699 1.237-0.027zM13.533 22.64c0.538 0.188 0.968 0.43 0.995 0.538 0 0.134 0 0.699 0 1.291v1.049l-1.237-0.376c-1.345-0.403-4.141-2.124-4.141-2.555 0-0.161 0.188-0.269 0.403-0.269s0.592-0.296 0.861-0.645l0.484-0.619 0.834 0.619c0.457 0.35 1.264 0.807 1.802 0.968zM16.759 24.334c0.027 0.134-0.161 0.296-0.403 0.35-0.296 0.054-0.484-0.081-0.484-0.35 0-0.457 0.807-0.484 0.887 0z"></path>
</symbol>
<symbol id="icon-mech1" viewBox="0 0 32 32">
<path d="M15.221 2.007c-0.168 0.983-0.827 1.258-1.258 0.539-0.132-0.204-0.24-0.479-0.24-0.599 0-0.168-0.072-0.216-0.324-0.18-0.312 0.036-0.336 0.084-0.396 0.635-0.084 0.755-0.168 0.899-0.587 0.899-0.372 0-0.647-0.252-0.839-0.743-0.108-0.3-0.144-0.312-0.491-0.192-0.252 0.084-0.348 0.18-0.312 0.3 0.204 0.515 0.204 0.779 0.024 1.055-0.288 0.431-0.695 0.384-1.139-0.12-0.336-0.384-0.396-0.408-0.671-0.276-0.216 0.096-0.288 0.192-0.228 0.324 0.048 0.108 0.108 0.419 0.144 0.695 0.036 0.407 0 0.515-0.192 0.623-0.3 0.156-0.587 0.072-1.019-0.336l-0.324-0.3-0.252 0.252c-0.24 0.228-0.24 0.264-0.060 0.611 0.276 0.527 0.24 0.827-0.108 1.055-0.276 0.18-0.324 0.18-0.791-0.072-0.503-0.252-0.503-0.252-0.743-0.012-0.24 0.228-0.24 0.228 0.024 0.563 0.611 0.767 0.108 1.438-0.803 1.055-0.407-0.168-0.455-0.168-0.587 0.024-0.216 0.3-0.204 0.384 0.144 0.791 0.563 0.671 0.312 1.091-0.611 1.043-0.479-0.036-0.587 0-0.683 0.228-0.096 0.216-0.060 0.312 0.264 0.611 0.647 0.599 0.372 1.21-0.551 1.21-0.431 0-0.491 0.036-0.551 0.3-0.036 0.252 0.012 0.348 0.3 0.491 0.192 0.096 0.407 0.312 0.479 0.467 0.18 0.396-0.144 0.755-0.767 0.851-0.407 0.072-0.455 0.12-0.455 0.419 0 0.216 0.060 0.348 0.168 0.348 0.3 0 0.791 0.491 0.791 0.779 0 0.324-0.407 0.659-0.803 0.659-0.228 0-0.276 0.060-0.276 0.36 0 0.252 0.072 0.384 0.216 0.431 0.587 0.18 0.803 0.36 0.803 0.707 0 0.276-0.096 0.407-0.384 0.599-0.3 0.18-0.384 0.312-0.36 0.539 0.024 0.24 0.108 0.312 0.527 0.395 0.851 0.168 0.935 0.695 0.216 1.258-0.252 0.204-0.288 0.288-0.192 0.539 0.096 0.24 0.192 0.3 0.539 0.288 0.791-0.024 1.055 0.623 0.479 1.187-0.276 0.288-0.288 0.336-0.132 0.563 0.132 0.204 0.288 0.264 0.743 0.264 0.791 0 0.935 0.24 0.563 0.923-0.264 0.491-0.264 0.515-0.048 0.719 0.18 0.192 0.276 0.204 0.599 0.084 0.312-0.108 0.443-0.096 0.683 0.060 0.348 0.228 0.372 0.419 0.108 0.935-0.18 0.348-0.18 0.384 0.048 0.599 0.216 0.228 0.252 0.228 0.599 0.048 0.527-0.276 0.851-0.24 0.995 0.096 0.108 0.216 0.096 0.395 0 0.683-0.12 0.36-0.108 0.419 0.12 0.599 0.252 0.18 0.288 0.18 0.683-0.084 0.503-0.348 0.563-0.348 0.875-0.036 0.192 0.192 0.228 0.336 0.168 0.695-0.060 0.395-0.036 0.467 0.216 0.575 0.252 0.12 0.336 0.096 0.575-0.156 0.587-0.623 1.187-0.407 1.187 0.443 0 0.395 0.048 0.479 0.312 0.539 0.264 0.072 0.372 0.012 0.611-0.3 0.491-0.623 1.055-0.455 1.222 0.384 0.060 0.3 0.144 0.395 0.384 0.419s0.336-0.048 0.491-0.384c0.348-0.719 1.079-0.671 1.27 0.084 0.084 0.324 0.168 0.395 0.479 0.419 0.336 0.036 0.384 0 0.384-0.24 0-0.407 0.324-0.815 0.659-0.815 0.3 0 0.779 0.503 0.779 0.803 0 0.12 0.108 0.156 0.324 0.132 0.276-0.024 0.348-0.108 0.407-0.479 0.084-0.551 0.3-0.815 0.635-0.815 0.288 0 0.791 0.455 0.791 0.707 0 0.108 0.096 0.132 0.276 0.084 0.144-0.036 0.3-0.072 0.36-0.072 0.048 0 0.084-0.264 0.084-0.575s0.060-0.635 0.144-0.719c0.252-0.252 0.659-0.156 1.043 0.216 0.312 0.312 0.395 0.348 0.647 0.228 0.264-0.12 0.288-0.168 0.168-0.527-0.060-0.216-0.084-0.527-0.036-0.695 0.132-0.539 0.587-0.515 1.414 0.060 0.168 0.12 0.252 0.108 0.419-0.048 0.156-0.168 0.18-0.264 0.060-0.479-0.276-0.575-0.288-0.791-0.024-1.055 0.276-0.276 0.563-0.252 1.091 0.12 0.3 0.216 0.324 0.216 0.551-0.024l0.252-0.24-0.288-0.431c-0.36-0.527-0.36-0.803 0-1.043 0.276-0.18 0.467-0.168 0.995 0.084 0.479 0.228 0.851-0.3 0.443-0.635-0.288-0.24-0.539-0.791-0.455-1.007 0.132-0.324 0.599-0.431 1.115-0.252 0.455 0.144 0.479 0.144 0.599-0.132 0.12-0.252 0.084-0.336-0.348-0.743-0.551-0.527-0.575-0.635-0.228-0.983 0.216-0.216 0.348-0.252 0.827-0.192 0.515 0.060 0.587 0.048 0.647-0.192 0.108-0.395 0.096-0.419-0.192-0.503-0.407-0.132-0.815-0.551-0.815-0.851 0-0.372 0.3-0.563 0.875-0.575 0.551-0.012 0.683-0.108 0.683-0.527 0-0.192-0.072-0.264-0.24-0.264-0.144 0-0.407-0.084-0.587-0.18-0.851-0.431-0.455-1.258 0.587-1.258 0.336 0 0.36-0.036 0.36-0.419 0-0.408-0.012-0.419-0.455-0.419-0.959 0-1.33-0.755-0.587-1.198 0.204-0.132 0.479-0.24 0.587-0.24 0.276 0 0.36-0.168 0.264-0.515-0.060-0.264-0.12-0.288-0.539-0.24-0.935 0.132-1.426-0.623-0.743-1.151 0.168-0.144 0.431-0.288 0.587-0.324 0.24-0.060 0.252-0.108 0.144-0.408-0.108-0.336-0.132-0.336-0.767-0.276-1.127 0.12-1.378-0.467-0.503-1.21 0.455-0.396 0.479-0.455 0.36-0.731-0.132-0.3-0.156-0.3-0.491-0.12-0.551 0.276-1.198 0.24-1.318-0.084-0.132-0.372-0.048-0.611 0.36-1.007 0.407-0.384 0.431-0.539 0.12-0.815-0.192-0.168-0.24-0.18-0.36-0.024-0.24 0.288-0.923 0.467-1.21 0.312-0.348-0.18-0.312-0.779 0.072-1.294l0.324-0.407-0.252-0.252-0.252-0.24-0.431 0.372c-0.671 0.599-1.258 0.467-1.258-0.276 0-0.192 0.096-0.527 0.228-0.719 0.216-0.36 0.216-0.36-0.084-0.551-0.288-0.204-0.3-0.192-0.647 0.204-0.419 0.467-0.719 0.587-1.055 0.407-0.276-0.144-0.336-0.911-0.108-1.342 0.108-0.216 0.096-0.288-0.084-0.419-0.324-0.24-0.479-0.192-0.647 0.204-0.156 0.372-0.587 0.719-0.887 0.719-0.348 0-0.587-0.551-0.503-1.139 0.084-0.503 0.072-0.551-0.228-0.659-0.407-0.156-0.419-0.156-0.419 0.060 0 0.587-0.707 1.234-1.103 1.007-0.264-0.144-0.479-0.851-0.384-1.246 0.072-0.3 0.060-0.312-0.324-0.276-0.348 0.036-0.407 0.096-0.479 0.431-0.096 0.467-0.419 0.863-0.719 0.863-0.312 0-0.707-0.575-0.707-1.031 0-0.372-0.036-0.407-0.348-0.407-0.324 0-0.36 0.048-0.431 0.503zM18.625 4.62c2.301 0.551 3.476 1.702 3.116 3.044-0.204 0.731-1.366 1.822-2.685 2.493-1.942 0.995-3.919 1.534-6.436 1.786-2.073 0.192-3.739-0.048-4.782-0.719-2.313-1.462 0.036-4.758 4.458-6.244 1.894-0.647 4.506-0.791 6.328-0.36zM23.778 8.515c0.791 0.408 0.623 1.582-0.264 1.894-0.288 0.108-0.995-0.192-1.151-0.491-0.288-0.539-0.036-1.246 0.515-1.462 0.372-0.156 0.527-0.144 0.899 0.060zM26.127 11.356c1.558 1.067 2.049 4.602 1.079 7.922-1.175 4.075-4.614 7.395-6.412 6.172-0.899-0.611-1.198-1.474-1.198-3.452 0-4.039 2.349-9.456 4.626-10.655 0.623-0.324 1.426-0.324 1.906 0.012zM7.119 12.063c0.755 0.264 0.923 1.282 0.288 1.786-1.019 0.803-2.253-0.719-1.282-1.57 0.132-0.108 0.312-0.228 0.407-0.264s0.18-0.072 0.192-0.072c0.012-0.012 0.18 0.048 0.396 0.12zM16.791 13.309c2.037 0.599 2.745 3.164 1.294 4.662-0.539 0.551-0.995 0.791-1.726 0.875-1.175 0.132-2.349-0.503-2.9-1.57-0.671-1.294-0.072-3.128 1.21-3.739 0.875-0.419 1.318-0.467 2.121-0.228zM7.934 15.551c1.69 0.635 4.554 3.092 6.052 5.202 1.75 2.457 2.433 4.782 1.69 5.777-0.503 0.683-0.815 0.803-1.93 0.791-0.875 0-1.198-0.060-2.013-0.384-1.978-0.779-4.183-2.589-5.429-4.434-1.39-2.073-2.073-4.506-1.678-5.957 0.144-0.515 0.791-1.21 1.21-1.294 0.455-0.096 1.402 0.036 2.097 0.3zM18.697 24.587c0.096 0.048 0.276 0.24 0.372 0.431 0.527 1.019-0.767 2.037-1.57 1.234-0.623-0.623-0.228-1.738 0.611-1.738 0.216 0 0.479 0.036 0.587 0.072z"></path>
</symbol>
<symbol id="icon-mech5" viewBox="0 0 32 32">
<path d="M15.566 1.798c0 0.492-0.478 1.057-0.84 0.985-0.13-0.029-0.376-0.304-0.536-0.623s-0.304-0.608-0.319-0.623c-0.014-0.029-0.145-0.014-0.304 0.029-0.217 0.072-0.29 0.217-0.275 0.579 0.029 1.014-0.753 1.26-1.274 0.42-0.405-0.652-0.883-0.608-0.825 0.072 0.072 0.666-0.319 1.231-0.738 1.115-0.174-0.058-0.463-0.261-0.637-0.463-0.434-0.536-0.811-0.362-0.695 0.304 0.058 0.275 0.058 0.637 0 0.796-0.116 0.405-0.753 0.405-1.173 0-0.261-0.246-0.376-0.275-0.623-0.145-0.29 0.159-0.29 0.188-0.058 0.681 0.188 0.376 0.203 0.565 0.101 0.753-0.217 0.348-0.724 0.391-1.173 0.101-0.333-0.217-0.391-0.217-0.594-0.029-0.203 0.203-0.188 0.261 0.014 0.594 0.348 0.521 0.304 0.927-0.116 1.129-0.275 0.116-0.449 0.116-0.753-0.014-0.304-0.145-0.42-0.13-0.594 0.043-0.188 0.188-0.174 0.261 0.101 0.608 0.579 0.738 0.261 1.318-0.637 1.173-0.71-0.116-0.898 0.246-0.42 0.811 0.188 0.232 0.348 0.536 0.348 0.695 0 0.319-0.623 0.623-1.057 0.507-0.174-0.043-0.304 0.043-0.376 0.246-0.101 0.261-0.058 0.362 0.217 0.507 0.434 0.232 0.608 0.84 0.333 1.129-0.116 0.116-0.391 0.217-0.608 0.232-0.565 0.043-0.738 0.84-0.188 0.84 0.101 0 0.304 0.13 0.434 0.275 0.362 0.391 0.174 0.825-0.434 1.057-0.362 0.13-0.492 0.261-0.492 0.507 0 0.232 0.087 0.333 0.275 0.333 0.145 0 0.42 0.116 0.608 0.275 0.29 0.232 0.319 0.319 0.159 0.652-0.087 0.203-0.333 0.405-0.536 0.463-0.565 0.145-0.434 0.652 0.217 0.854 0.811 0.246 0.956 0.738 0.348 1.216-0.42 0.333-0.42 0.782 0.014 0.854 0.738 0.101 0.912 0.188 0.985 0.463 0.043 0.188-0.058 0.449-0.29 0.724-0.492 0.594-0.29 0.912 0.55 0.927 0.594 0.014 0.637 0.043 0.681 0.42 0.029 0.232-0.043 0.521-0.174 0.666-0.405 0.449-0.145 0.753 0.594 0.709 0.825-0.058 1.072 0.217 0.796 0.927-0.145 0.376-0.13 0.507 0.029 0.666 0.145 0.159 0.275 0.159 0.492 0.043 0.782-0.42 1.318-0.014 1.086 0.782-0.232 0.724 0.072 0.941 0.753 0.565 0.695-0.376 1.014-0.159 0.999 0.652-0.014 0.738 0.362 0.941 0.869 0.463 0.623-0.594 1.361-0.188 1.202 0.652-0.101 0.536 0.449 0.637 0.811 0.145 0.478-0.652 1.26-0.42 1.26 0.362 0 0.29 0.087 0.434 0.319 0.507 0.188 0.058 0.348 0.029 0.376-0.058 0.116-0.362 0.652-0.898 0.898-0.898 0.319 0 0.521 0.246 0.652 0.767 0.13 0.478 0.796 0.579 0.796 0.116 0-0.145 0.116-0.42 0.275-0.608 0.232-0.29 0.319-0.319 0.652-0.159 0.203 0.087 0.405 0.333 0.463 0.536 0.116 0.492 0.782 0.521 0.782 0.029 0-0.449 0.391-0.97 0.724-0.97 0.159 0 0.42 0.188 0.608 0.434 0.463 0.637 0.84 0.579 0.84-0.13 0-0.536 0.275-1.028 0.579-1.028 0.072 0 0.348 0.188 0.623 0.42 0.637 0.565 0.898 0.405 0.84-0.478-0.058-0.956 0.492-1.173 1.245-0.492 0.246 0.232 0.362 0.261 0.608 0.13 0.275-0.159 0.275-0.188 0.058-0.565-0.348-0.608-0.159-1.187 0.376-1.187 0.217 0 0.579 0.13 0.767 0.29 0.348 0.261 0.376 0.261 0.594 0.029 0.203-0.217 0.203-0.275-0.058-0.594-0.724-0.883 0.087-1.738 1.014-1.072 0.319 0.217 0.362 0.217 0.536-0.029 0.174-0.217 0.145-0.319-0.159-0.681-0.391-0.463-0.463-0.825-0.188-1.1 0.217-0.217 0.767-0.232 1.129-0.029 0.217 0.116 0.304 0.087 0.434-0.145 0.13-0.246 0.087-0.348-0.29-0.666-0.811-0.695-0.449-1.419 0.695-1.332 0.449 0.043 0.536 0 0.579-0.261 0.029-0.232-0.058-0.333-0.319-0.405-0.434-0.101-0.854-0.681-0.738-0.999 0.116-0.29 0.811-0.579 1.245-0.507 0.261 0.029 0.362-0.029 0.391-0.261s-0.058-0.333-0.362-0.42c-0.521-0.116-0.912-0.478-0.912-0.811 0-0.348 0.536-0.709 1.043-0.709 0.333 0 0.405-0.058 0.405-0.362s-0.072-0.362-0.405-0.362c-0.507 0-1.043-0.362-1.043-0.71 0-0.333 0.391-0.695 0.912-0.811 0.29-0.087 0.391-0.188 0.391-0.463 0-0.319-0.043-0.348-0.348-0.275-0.188 0.043-0.55 0.014-0.796-0.072-0.753-0.261-0.536-1.1 0.391-1.448 0.232-0.087 0.319-0.203 0.261-0.362-0.043-0.13-0.087-0.29-0.087-0.362 0-0.087-0.116-0.087-0.275 0.014-0.449 0.232-0.956 0.174-1.245-0.145-0.217-0.246-0.232-0.348-0.101-0.652 0.101-0.203 0.333-0.434 0.536-0.536 0.376-0.174 0.434-0.348 0.232-0.681-0.087-0.145-0.188-0.159-0.42-0.029-0.492 0.261-1.158 0.203-1.332-0.13s0.13-1.072 0.507-1.202c0.261-0.101 0.29-0.405 0.058-0.637-0.116-0.116-0.29-0.087-0.623 0.116-0.579 0.348-0.883 0.348-1.144-0.029-0.246-0.348-0.188-0.71 0.203-1.129 0.319-0.333 0.333-0.478 0.116-0.695-0.13-0.13-0.304-0.087-0.695 0.188-0.275 0.188-0.623 0.348-0.738 0.348-0.579 0-0.753-0.753-0.333-1.405 0.232-0.348 0.232-0.376-0.014-0.565-0.246-0.174-0.319-0.145-0.666 0.232-0.42 0.463-0.84 0.55-1.129 0.261-0.217-0.217-0.232-0.898-0.029-1.274 0.116-0.217 0.087-0.304-0.174-0.449-0.261-0.13-0.333-0.13-0.376 0.014-0.13 0.362-0.738 0.869-1.028 0.869-0.405 0-0.637-0.507-0.536-1.173 0.058-0.319 0.029-0.565-0.043-0.565s-0.232-0.043-0.362-0.087c-0.159-0.058-0.232 0-0.232 0.188 0 0.362-0.521 0.912-0.869 0.912-0.376 0-0.753-0.608-0.695-1.115 0.029-0.319-0.014-0.42-0.246-0.434-0.217-0.029-0.362 0.116-0.579 0.579-0.348 0.724-0.796 0.869-1.144 0.362-0.13-0.174-0.232-0.507-0.232-0.724 0-0.333-0.058-0.405-0.362-0.405s-0.362 0.072-0.362 0.434zM18.491 5.085c1.491 0.681 1.26 1.839-0.565 2.737-0.753 0.362-0.985 0.405-2.36 0.42-1.405 0-1.578-0.029-2.375-0.434-1.477-0.738-1.709-1.694-0.594-2.389 0.854-0.521 1.911-0.724 3.62-0.681 1.231 0.043 1.752 0.116 2.273 0.348zM23.848 7.966c1.245 0.811 2.693 3.229 2.838 4.72 0.058 0.753 0.029 0.898-0.261 1.202-0.449 0.478-0.782 0.449-1.853-0.087-1.506-0.738-2.65-2.433-2.852-4.185-0.232-1.94 0.652-2.621 2.128-1.651zM9.672 8.603c0.405 0.782 0.275 2.302-0.304 3.533-0.536 1.144-1.651 2.288-2.592 2.635-0.579 0.232-0.695 0.232-1.028 0.043-1.072-0.594-0.55-3.128 1.086-5.386 1.071-1.462 2.317-1.824 2.838-0.825zM18.447 11.514c1.072 0.565 1.795 1.332 2.302 2.433 0.319 0.666 0.376 1.028 0.391 2.042 0 1.043-0.058 1.361-0.391 2.056-1.491 3.171-5.213 4.083-7.964 1.94-0.623-0.492-0.927-0.883-1.303-1.636-0.434-0.898-0.478-1.086-0.478-2.36 0-1.651 0.275-2.36 1.318-3.475 1.593-1.709 4.054-2.114 6.125-0.999zM26.454 17.291c0.463 0.362 0.594 0.97 0.391 1.926-0.478 2.259-2.346 4.735-3.547 4.735-0.883 0-1.144-0.565-1.043-2.215 0.13-2.042 1.433-3.924 3.142-4.532 0.681-0.246 0.637-0.246 1.057 0.087zM7.457 18.131c0.782 0.362 1.998 1.665 2.433 2.592 0.536 1.173 0.623 2.838 0.174 3.403-0.188 0.246-0.449 0.405-0.666 0.405-1.738 0-4.547-4.271-3.967-6.024 0.275-0.811 0.869-0.927 2.027-0.376zM18.23 23.952c2.288 0.709 2.621 2.071 0.709 2.925-0.97 0.434-3.866 0.55-4.952 0.188-0.869-0.29-1.52-0.956-1.376-1.433 0.304-1.014 2.114-1.94 3.837-1.955 0.449-0.014 1.26 0.116 1.781 0.275z"></path>
</symbol>
</defs>
</svg>
