<svg aria-hidden="true" style="position: absolute; width: 0; height: 0; overflow: hidden;" version="1.1" xmlns="http://www.w3.org/2000/svg" xmlns:xlink="http://www.w3.org/1999/xlink">
<defs>
<symbol id="icon-bogatyr-club-p-serdtse-kontur-foni-vkontakte-4-1" viewBox="0 0 35 32">
<path d="M8.636 0.060c-0.078 0.007-0.357 0.042-0.618 0.081-2.787 0.41-5.231 2.042-6.665 4.45-0.653 1.098-1.063 2.285-1.268 3.691-0.088 0.59-0.088 2.045-0.004 2.667 0.555 4.002 2.985 7.654 8.841 13.284 2.405 2.31 8.279 7.714 8.385 7.714 0.064 0 3.959-3.543 6.287-5.718 5.475-5.118 8.124-8.184 9.625-11.147 1.6-3.161 1.83-6.442 0.65-9.272-1.155-2.776-3.511-4.793-6.432-5.506-0.823-0.201-1.236-0.247-2.289-0.247-1.024-0.004-1.307 0.021-2.063 0.18-1.928 0.403-3.709 1.349-5.1 2.723-0.212 0.208-0.449 0.452-0.53 0.544l-0.148 0.17-0.148-0.17c-0.081-0.092-0.318-0.336-0.53-0.544-1.649-1.628-3.85-2.66-6.153-2.886-0.353-0.035-1.501-0.046-1.84-0.014zM10.119 2.72c1.565 0.145 3.009 0.749 4.231 1.766 0.441 0.371 0.731 0.689 1.932 2.119 0.547 0.65 1.007 1.183 1.024 1.183s0.502-0.565 1.081-1.254c1.134-1.353 1.642-1.89 2.169-2.282 1.787-1.335 3.889-1.83 5.997-1.406 1.628 0.325 3.076 1.24 4.034 2.539 0.328 0.449 0.427 0.611 0.668 1.113 0.844 1.759 0.925 3.779 0.233 5.845-0.699 2.091-2.077 4.143-4.712 7.011-0.696 0.756-3.129 3.168-4.366 4.327-2.2 2.063-5.051 4.68-5.1 4.68-0.078 0-4.051-3.666-6.167-5.687-6.216-5.944-8.47-9.416-8.466-13.051 0-1.201 0.201-2.116 0.682-3.126 0.244-0.502 0.339-0.668 0.668-1.113 1.37-1.858 3.719-2.886 6.093-2.667z"></path>
</symbol>
<symbol id="icon-menu" viewBox="0 0 47 32">
<path stroke-linejoin="round" stroke-linecap="round" stroke-miterlimit="4" stroke-width="4.3636" d="M1.961 29.153h42.964M1.961 15.615h42.964M1.961 2.077h42.964"></path>
</symbol>
<symbol id="icon-twit" viewBox="0 0 37 32">
<path fill="#f4f4fd" style="fill: var(--color1, #f4f4fd)" d="M36.571 4.661c-1.257 0.564-2.715 0.98-4.242 1.176l-0.078 0.008c1.554-0.933 2.722-2.375 3.283-4.091l0.015-0.053c-1.369 0.826-2.961 1.456-4.658 1.799l-0.096 0.016c-1.372-1.462-3.315-2.372-5.472-2.372-4.14 0-7.497 3.356-7.497 7.497v0c0 0.594 0.050 1.166 0.174 1.71-6.249-0.316-11.746-3.289-15.423-7.804l-0.031-0.039c-0.643 1.084-1.023 2.39-1.023 3.784 0 2.588 1.309 4.87 3.301 6.22l0.026 0.017c-1.248-0.034-2.41-0.371-3.425-0.94l0.037 0.019v0.082c0.004 3.616 2.556 6.635 5.958 7.358l0.049 0.009c-0.572 0.157-1.229 0.247-1.907 0.247-0.021 0-0.041-0-0.062-0l0.003 0c-0.035 0.001-0.076 0.001-0.118 0.001-0.461 0-0.91-0.047-1.344-0.136l0.043 0.007c0.998 2.998 3.741 5.138 6.996 5.223l0.010 0c-2.531 1.994-5.764 3.198-9.279 3.198-0.006 0-0.012 0-0.017 0h0.001c-0.615 0-1.205-0.027-1.794-0.103 3.23 2.11 7.185 3.365 11.433 3.365 0.024 0 0.048-0 0.073-0h-0.004c13.797 0 21.339-11.429 21.339-21.335 0-0.331-0.011-0.651-0.027-0.969 1.484-1.071 2.732-2.361 3.724-3.839l0.034-0.054z"></path>
</symbol>
<symbol id="icon-fac" viewBox="0 0 18 32">
<path fill="#f4f4fd" style="fill: var(--color1, #f4f4fd)" d="M13.33 5.314h2.92v-5.088c-1.238-0.144-2.672-0.226-4.125-0.226-0.045 0-0.089 0-0.134 0l0.007-0c-4.214 0-7.1 2.65-7.1 7.52v4.48h-4.648v5.688h4.648v14.312h5.7v-14.31h4.46l0.704-5.69h-5.166v-3.92c0-1.644 0.444-2.768 2.734-2.768z"></path>
</symbol>
<symbol id="icon-linkedin" viewBox="0 0 32 32">
<path fill="#f4f4fd" style="fill: var(--color1, #f4f4fd)" d="M31.992 32h0.008v-11.74c0-5.74-1.236-10.164-7.948-10.164-3.228 0-5.392 1.772-6.276 3.45h-0.096v-2.912h-6.36v21.366h6.628v-10.58c0-2.786 0.528-5.48 3.976-5.48 3.4 0 3.45 3.18 3.45 5.66v10.4h6.62zM0.528 10.636h6.632v21.364h-6.632v-21.364zM3.842 0c-2.12 0-3.842 1.72-3.842 3.84s1.72 3.88 3.842 3.88 3.844-1.76 3.844-3.88c-0.002-2.118-1.726-3.84-3.846-3.84z"></path>
</symbol>
<symbol id="icon-airplane" viewBox="0 0 38 32">
<path fill="#fff" style="fill: var(--color2, #fff)" d="M38.4 0l-38.4 18 12.272 3.787 18.928-14.787-14.397 16.186 0.011 0.005-0.014-0.005v8.814l6.882-6.691 8.72 2.691 5.998-28z"></path>
</symbol>
<symbol id="icon-kreuz" viewBox="0 0 32 32">
<path d="M32 3.224l-3.224-3.224-12.776 12.776-12.776-12.776-3.224 3.224 12.776 12.776-12.776 12.776 3.224 3.224 12.776-12.776 12.776 12.776 3.224-3.224-12.776-12.776 12.776-12.776z"></path>
</symbol>
</defs>
</svg>
